<?xml version="1.0" encoding="utf-8"?>
<!-- Generator: Adobe Illustrator 21.1.0, SVG Export Plug-In . SVG Version: 6.00 Build 0)  -->
<svg version="1.1" id="Layer_1" xmlns="http://www.w3.org/2000/svg" xmlns:xlink="http://www.w3.org/1999/xlink" x="0px" y="0px"
	 viewBox="0 0 161 160" style="enable-background:new 0 0 161 160;" xml:space="preserve">
<style type="text/css">
	.st0{fill:#5DBACD;}
	.st1{fill:#458DD1;}
</style>
<g>
	<g>
		<path class="st0" d="M58.3,51.9c-17.4,8.7-28.9,21.2-24.4,38c4.5,16.7,23.8,19.5,42,23.5s38,10.5,47.7,20.2
			c9.6,9.6,9.3,16.2,12.2,15.6c2.8-0.6-5.7-18.2-7.7-24.7c-2-6.5-0.6-28.6-0.6-39.4s-8.5-28.9-27.2-34.9S64.5,48.8,58.3,51.9z"/>
		<path class="st0" d="M75.6,41.1c0,0-17.3,2.8-27,8.5s-17.3,17-17.3,17s-2.4-4.7,2.9-14.5s17.2-16.4,27-16
			C70.9,36.6,75.6,41.1,75.6,41.1z"/>
		<path class="st0" d="M58.9,31.8c0,0-9.6,0.2-17.8,6.2S30.5,48.8,30.5,48.8s-0.5-10.3,8.4-16.2S54.2,26.8,58.9,31.8z"/>
		<path class="st0" d="M44.1,25.7c0,0-4.5,0.9-7,2.5c-2.6,1.6-5.4,4.3-5.4,4.3s-1.2-6.9,4.1-8.7C38.7,22.8,42.9,24.9,44.1,25.7z"/>
		<path class="st1" d="M43.3,117c-1.3-2.4,1.3-5,3.7-3.7c4,2.1,9.6,4.3,17.6,5.9c21,4.3,32.9,6.5,40.8,9.6
			c7.9,3.1,15.3,9.9,15.3,9.9s-14.7-3.1-23.5-1.7c-8.8,1.4-21,4.3-36.3-3.7C51.1,128.2,46.5,122.8,43.3,117z"/>
	</g>
</g>
</svg>
