<?xml version="1.0" encoding="utf-8"?>
<!-- Generator: Adobe Illustrator 21.1.0, SVG Export Plug-In . SVG Version: 6.00 Build 0)  -->
<svg version="1.1" id="Layer_1" xmlns="http://www.w3.org/2000/svg" xmlns:xlink="http://www.w3.org/1999/xlink" x="0px" y="0px"
	 viewBox="0 0 161 160" style="enable-background:new 0 0 161 160;" xml:space="preserve">
<style type="text/css">
	.st0{fill:#2BBFA9;}
	.st1{fill:#82DBCA;}
</style>
<g>
	<g>
		<path class="st0" d="M26.8,22.6c-2.3,1.7-0.3,11.7,2,16s5.3,7.3,5.3,7.3s1.3-6,4-8c2.7-2,7.3-3.7,7.3-3.7S30.8,19.6,26.8,22.6z"/>
		<path class="st0" d="M37.4,70.7c0,0,9.6-8.1,17.2-14.6S69,38.8,69,38.8s-6.3-12-9.3-11c-3,1-2.3,7.9-5.3,10.4
			c-3,2.6-9.1,0.3-12,3.1c-2.9,2.8-2.2,10.7-4.9,13.3c-2.7,2.7-5.9,1.7-7.1,4.8C29.1,62.6,35.1,70.1,37.4,70.7z"/>
		<path class="st0" d="M91.9,27.8c-5.4-1.6-6.5,4.6-7.1,7.3c-0.7,2.7,0.2,6.2-5.1,6.7s-7.8,0.7-8.7,4.9s1.8,7.3-2,9.1
			s-6.9-2.4-11.1,0.9s-1.8,8.2-5.1,12.2c-3.3,4-9.1,0-12.9,3.8c-3.8,3.8-0.6,7.6-4.2,11.8c-3.6,4.2-6.1-2-9.9,3.3
			s2.9,10.9,13.8,15.6s26.7,10.2,38,14.5c11.3,4.2,20.7,8.5,27.4,14.2c6.7,5.8,10.5,11.6,15.1,8.5c4.7-3.1,2.4-8.7,0-12.5
			c-2.4-3.8-12.2-22.2-14.9-36S98.1,61.3,97,50.2C95.9,39.1,96.6,29.2,91.9,27.8z"/>
		<path class="st1" d="M103.8,47.5c-2,1.4,1.1,11.6,3.8,22s3.1,20.2,6.5,30s8.1,20.5,11.9,26.9c3.7,6.5,2.4,14,6.4,14.9
			c4,0.9,4.7-6.9,2.9-14.2s-6.9-21.8-5.8-27.8c1.1-6,7.3-19.8,5.1-31.4s-8.2-21.6-12.2-21.6C118.3,46.4,107.6,44.8,103.8,47.5z"/>
	</g>
</g>
</svg>
