<?xml version="1.0" encoding="utf-8"?>
<!-- Generator: Adobe Illustrator 21.1.0, SVG Export Plug-In . SVG Version: 6.00 Build 0)  -->
<svg version="1.1" id="Layer_1" xmlns="http://www.w3.org/2000/svg" xmlns:xlink="http://www.w3.org/1999/xlink" x="0px" y="0px"
	 viewBox="0 0 161 160" style="enable-background:new 0 0 161 160;" xml:space="preserve">
<style type="text/css">
	.st0{fill:#5DBACD;}
	.st1{fill:#458DD1;}
</style>
<g>
	<g>
		<g>
			<path class="st0" d="M19.6,58.9c-5.1,3.4-6.7,14.2,1.7,21.2c8.4,7,15.6-1.1,16.2-7.3C38.1,66.7,30.2,51.9,19.6,58.9z"/>
			<path class="st0" d="M27.7,54.4c0,0,12,0.8,13.4,12.3s-2.8,20.1-11.7,21.2c-8.9,1.1-10.9-5.1-10.9-5.1s4.8,18.8,19,16.3
				s15.1-21.2,14.8-27.4c-0.3-6.1-6.7-16.8-12.6-19C33.9,50.5,27.7,54.4,27.7,54.4z"/>
			<path class="st0" d="M40.9,48c0,0,14.8-2.8,22.1,4.1s12.6,18.3,11.9,35.3s-8.2,30.5-22.5,34.6s-26-5.6-29.9-12.9
				c-3.9-7.3-3.9-14.5-3.9-14.5s8.4,14.5,24.9,7.3s16.5-27.7,12.3-39.4S40.9,48,40.9,48z"/>
			<path class="st0" d="M49.2,41.5c0,0,20.7-1.1,27.9,22.4s2.1,38.9-4.5,48.6c-2.2,3.2-6.4,7.1-6.4,7.1s25.3,1,40.9-2.2
				c18.8-3.8,24.9-11.1,30.4-16.8c9.4-9.9,8-13.6,8-13.6s-8.9,2.2-18.2-5.6s-2.5-18.4-15.1-34.1S86.1,27.9,70.2,30.1
				S49.2,41.5,49.2,41.5z"/>
		</g>
		<path class="st1" d="M64.3,123c0,0,21.6,2.1,36.2-0.9s19.9-5.5,24.2-7.5s9.5-6.5,9.5-6.5s-8.4,15.6-33.6,22.2
			c-25.2,6.6-44.5,1.2-50.1,0.4s-7.5-3.1-7.5-3.1S53.2,128.2,64.3,123z"/>
	</g>
</g>
</svg>
