<?xml version="1.0" encoding="utf-8"?>
<!-- Generator: Adobe Illustrator 21.1.0, SVG Export Plug-In . SVG Version: 6.00 Build 0)  -->
<svg version="1.1" id="Layer_1" xmlns="http://www.w3.org/2000/svg" xmlns:xlink="http://www.w3.org/1999/xlink" x="0px" y="0px"
	 viewBox="0 0 161 160" style="enable-background:new 0 0 161 160;" xml:space="preserve">
<style type="text/css">
	.st0{fill:#AA51AD;}
	.st1{fill:#C68BC9;}
</style>
<g>
	<g>
		<path class="st0" d="M29.8,73.7c0,0-3.8,1.5-8.7,7.4c-4.8,5.9-1.5,6.9,5.6,13.5s32.9,26.5,37.7,25c4.8-1.5-4.8-7.6-16.3-20.6
			S29.8,73.7,29.8,73.7z"/>
		<path class="st0" d="M45.3,52.8c0,0-7.1,0.3-13.5,4.8s-4.1,7.1-1.3,12c2.8,4.8,16,24.2,24.5,32.4s13.5,13.5,12.5,8.2
			c-1-5.3-9.7-23.7-14-34.4S45.3,52.8,45.3,52.8z"/>
		<path class="st0" d="M67.6,42.3c0,0-5.2-2-13.1,0s-8.5,5.6-6.8,10.4c1.7,4.8,14.2,39.5,19.9,46.9c5.7,7.4,6.7,12.5,7.3,2.8
			s-3.3-27-4.6-36.4C69,56.6,67.6,42.3,67.6,42.3z"/>
		<path class="st0" d="M94.2,41.4c0,0-4.3-4.7-12.2-4.7s-12.2,4.7-12.2,4.7s3.7,30.5,5.1,36.8c1.5,6.4,4.5,28.3,7.1,28.3
			s7.1-28.3,8.4-36.7C91.7,61.4,94.2,41.4,94.2,41.4z"/>
		<path class="st0" d="M96,42.4c0,0,7.4-2.3,13.9,0c6.5,2.3,8.1,5.5,7.6,7.3c-0.5,1.7-6,17.6-12.8,33.5
			c-6.9,15.9-13.1,26.2-14.8,24.6s1.5-26.7,2.9-36.1S95.4,47.2,96,42.4z"/>
		<path class="st0" d="M118.6,52.8c0,0,7.9,0,12.7,3.7c4.8,3.7,5.5,6.4,5.3,7.6c-0.1,1.3-6.6,11.7-12.9,20.3
			c-6.2,8.5-17.7,23.1-23.7,26.7c-6,3.7-3.2-5.2,0.5-13.2s11.2-25.9,14.5-33.8S118.6,52.8,118.6,52.8z"/>
		<path class="st0" d="M134,73.7c0,0-8.7,14-14.4,20.8c-5.7,6.8-18.6,20-19.7,22.4c-1.1,2.4-1.5,4.2,5.6,1.1
			c7.1-3.1,18.9-11.8,27.6-19.5c8.8-7.6,12.6-10.8,12.5-13.1S140.6,76.1,134,73.7z"/>
		<path class="st1" d="M65.7,123.3c0,0,9,5.9,16.3,5.7c7.3-0.1,18.2-5.7,18.2-5.7s-2.6,0-3.6-2.2c-1-2.2,0.9-5.6,0.9-5.6
			s-2.7,2.5-4.6,0c-1.9-2.5-0.1-5.6-0.1-5.6s-2,3.2-4.5,3.1c-2.4-0.1-2.2-5.2-2.2-5.2s-1.7,4.3-4.2,4.2s-3.6-4.2-3.6-4.2
			s-0.4,4.7-2,5.2s-5-2.9-5-2.9s0.9,5.6-0.6,5.5c-1.5-0.1-3.2-0.8-3.2-0.8s1.1,4.5,0,5.7c-1.1,1.3-3.7,1.5-3.7,1.5L65.7,123.3z"/>
	</g>
</g>
</svg>
