<?xml version="1.0" encoding="utf-8"?>
<!-- Generator: Adobe Illustrator 21.1.0, SVG Export Plug-In . SVG Version: 6.00 Build 0)  -->
<svg version="1.1" id="Layer_1" xmlns="http://www.w3.org/2000/svg" xmlns:xlink="http://www.w3.org/1999/xlink" x="0px" y="0px"
	 viewBox="0 0 161 160" style="enable-background:new 0 0 161 160;" xml:space="preserve">
<style type="text/css">
	.st0{fill:#C53198;}
	.st1{fill:#BA94C6;}
</style>
<g>
	<g>
		<path class="st0" d="M63.5,107.9c0,0-16.2,9.7-29.1-7.3s4.8-45.2,20.2-56.5s47.6-19.4,75.1,2.4s19.4,67-5.7,78.3
			c-25,11.3-56.5,0-57.3-28.3C65.9,68.3,95,60.3,107.9,69.9s9.7,29.9-2.4,32.3s-13.7-9.7-11.3-11.3c2.4-1.6,5.7-0.8,4-5.7
			c-1.6-4.8-15.3,2.4-11.3,12.9c4,10.5,15.3,15.3,25.8,8.9c10.5-6.5,15.3-25,4.8-37.1S86.1,56.2,74,66.7S57,96.6,63.5,107.9z"/>
		<path class="st1" d="M31.2,68.3c0,0-12.1,25,2.4,38.8s31.5,5.7,31.5,5.7s1.6,3.2,3.2,4.8c1.6,1.6,2.4,3.2,2.4,3.2
			s-20.2,11.3-39.6-1.6S15,83.7,17.4,77.2S23.1,65.9,31.2,68.3z"/>
	</g>
</g>
</svg>
