<?xml version="1.0" encoding="utf-8"?>
<!-- Generator: Adobe Illustrator 21.1.0, SVG Export Plug-In . SVG Version: 6.00 Build 0)  -->
<svg version="1.1" id="Layer_1" xmlns="http://www.w3.org/2000/svg" xmlns:xlink="http://www.w3.org/1999/xlink" x="0px" y="0px"
	 viewBox="0 0 161 160" style="enable-background:new 0 0 161 160;" xml:space="preserve">
<style type="text/css">
	.st0{fill:#C53198;}
	.st1{fill:#BA94C6;}
</style>
<g>
	<g>
		<path class="st0" d="M119.6,55.1c0,0-15.7,0.8-28-6.6S75.9,33.7,75.9,33.7S66.8,45.2,52,46s-21.4-4.1-21.4-4.1s3.3,13.2-4.1,21.4
			s-14,8.2-14,8.2s6.6,11.5,4.9,21.4s-4.9,14.8-4.9,14.8s8.2,1.6,14,8.2c5.8,6.6,9.1,15.7,9.1,15.7s7.4-0.8,15.7,0
			s12.4,3.3,12.4,3.3s4.9-4.9,11.5-9.1c6.6-4.1,10.7-4.1,10.7-4.1s-0.8-5.8,2.5-11.5S94,99.7,94,99.7s-4.1-4.9-4.9-9.1
			c-0.8-4.1-0.8-8.2-0.8-8.2s-4.1-1.6-8.2-5.8c-4.1-4.1-4.9-6.6-4.9-6.6s-9.1-4.1-20.6-0.8C44.1,72.1,32.5,80.9,36.3,98
			c3.3,14.8,26.4,18.1,33,8.2c6.6-9.9,3.4-21-4.1-23.1c-9.1-2.5-14,3.3-13.2,7.4c1,4.9,5.2,3.6,4.1,5.8c-1.6,3.3-8.2,1.6-9.1-4.1
			c-0.8-5.8,0.8-11.5,9.1-14c11.3-3.4,20.6,4.1,21.4,13.2c0.8,9.1-2.5,26.4-23.1,25.6c-21.7-0.9-30.3-26.8-19-41.2
			c14.8-19,41.2-11.5,41.2-11.5s3.3,5.8,9.1,9.9c5.8,4.1,9.1,4.9,9.1,4.9s-1.6,6.6,0.8,12.4s4.9,9.1,4.9,9.1s-4.1,6.6-5.8,11.5
			c-1.6,4.9-2.5,6.6-2.5,6.6s4.1,1.6,11.5,0c7.4-1.6,13.2-6.6,23.9-6.6s17.3-2.5,16.5-4.9s-14-12.4-19-25.6S119.6,62.5,119.6,55.1z"
			/>
		<path class="st1" d="M92.3,122.8c0,0,5.9,1.2,14.9-0.7s8.4-3.6,16.6-4.7s17.3-3.9,18.8-4.6c1.5-0.7,5.5,7,6.8,9.5
			c1.3,2.6-31.7,9.6-41.4,10.6s-23.5-3.1-23.5-3.1S81.6,127.9,92.3,122.8z"/>
	</g>
</g>
</svg>
