<?xml version="1.0" encoding="utf-8"?>
<!-- Generator: Adobe Illustrator 21.1.0, SVG Export Plug-In . SVG Version: 6.00 Build 0)  -->
<svg version="1.1" id="Layer_1" xmlns="http://www.w3.org/2000/svg" xmlns:xlink="http://www.w3.org/1999/xlink" x="0px" y="0px"
	 viewBox="0 0 161 160" style="enable-background:new 0 0 161 160;" xml:space="preserve">
<style type="text/css">
	.st0{fill:#5DBACD;}
	.st1{fill:#458DD1;}
</style>
<g>
	<g>
		<g>
			<path class="st0" d="M83,21.1c-6.3,0.5-15.3,9-15.3,15.3s9,9,17.1,2.7S93.8,20.2,83,21.1z"/>
			<path class="st0" d="M65,42.7c0,0,7.2,9,18,3.6s12-12.4,12-12.4s8.8,13.3-3.8,25s-27.9,9-31.5,0.9C56,51.7,65,42.7,65,42.7z"/>
			<path class="st0" d="M56.9,64.3c0,0,5.4,9.9,18.9,8.1s19.8-9.9,22.5-13.5c2.7-3.6,2.7-7.2,2.7-7.2s8.1,18.9-6.3,33.3
				S65,98.5,56.9,94S45.2,75.1,56.9,64.3z"/>
			<path class="st0" d="M46.1,82.3c0,0-3.6,13.5,12.6,18.9c16.2,5.4,29.7,0,38.7-9.9s10.8-26.1,10.8-26.1s14.4,23.4,1.8,45
				s-31.5,30.6-54,25.2c-22.5-5.4-27.9-17.1-26.1-34.2C31.7,84.1,44.3,81.4,46.1,82.3z"/>
			<path class="st0" d="M116.3,76c0,0,0.9,1.8,1.8,4.5c0.9,2.7,0.9,6.3,0.9,6.3s7.2,2.7,10.8,7.2s5.4,7.2,6.3,10.8
				c0.9,3.6,0.9,7.2,0.9,7.2s2.7-12.6-1.8-22.5S118.1,76,116.3,76z"/>
		</g>
		<path class="st1" d="M87.5,137.2c0,0,11.5-1.6,22.8-18.1c11-16.1,8.8-26.9,8.8-26.9s24.6,15.2,9.2,39.3S87.5,137.2,87.5,137.2z"/>
	</g>
</g>
</svg>
