<?xml version="1.0" encoding="utf-8"?>
<!-- Generator: Adobe Illustrator 21.1.0, SVG Export Plug-In . SVG Version: 6.00 Build 0)  -->
<svg version="1.1" id="Layer_1" xmlns="http://www.w3.org/2000/svg" xmlns:xlink="http://www.w3.org/1999/xlink" x="0px" y="0px"
	 viewBox="0 0 161 160" style="enable-background:new 0 0 161 160;" xml:space="preserve">
<style type="text/css">
	.st0{fill:#2BBFA9;}
	.st1{fill:#82DBCA;}
</style>
<g>
	<g>
		<path class="st0" d="M108.2,25.7c6.7,0.7,8.3-4.5,14.4-1.6s2.7,9.5,4.1,13.5c1.4,4.1,3.8,13.3,2.5,12.6
			c-1.4-0.7-8.6-11.3-15.1-15.1c-6.5-3.8-18.5-7.2-17.6-8.1C97.4,26.2,99.7,24.8,108.2,25.7z"/>
		<path class="st0" d="M122.7,49.2c0,0,0.1,3.8-2.8,12.4c-4.7,14.1,2.7,26.8,5.1,27.5s8.5,1.6,8.5,1.6S139.3,64.9,122.7,49.2z"/>
		<path class="st0" d="M115.7,43.3c0,0,3.4,11.3-1.6,21c-5,9.7-8.3,8.8-9.5,3.6s-3.4-13.1-10.8-12.4c-7.4,0.7-9-1.4-8.1-6.3
			s-2.3-8.1-6.8-7.7c-4.5,0.5-13.3-6.5-9.7-10.4S94.9,24.1,115.7,43.3z"/>
		<path class="st0" d="M79.6,61.6c2.9,0.5,15-0.5,16.9,1.8c1.9,2.3,0.5,13.3,3.9,15.3c3.4,2,8.3-2.3,14.9,4.3s1.4,9.2,5.2,13.1
			c3.8,3.8,4.6-2.5,9.2,2.7c4.6,5.2-0.9,12.2-16.6,18.5c-15.6,6.3-29.1,11.9-43.1,18.5s-26.8,10.1-33.4,6.8s-6.5-7-6.5-7
			s18.3,0.7,26.4-2.5s19.6-15.8,18-25.2s-7.7-17.4-4.5-28.4C73.1,68.3,79.6,61.6,79.6,61.6z"/>
		<path class="st1" d="M68.4,47.4c0,0-3.9,11.3-4.6,25.9s-1.6,43.1-13.1,50.7S30,131.7,30,131.7s3.8-8.6,7.4-18.3
			c3.6-9.7,5.6-18.9,9-38.5s4.5-43.7,8.3-43.7s8.1,0.5,8.8,5.7S68.4,47.4,68.4,47.4z"/>
	</g>
</g>
</svg>
