<?xml version="1.0" encoding="utf-8"?>
<!-- Generator: Adobe Illustrator 21.1.0, SVG Export Plug-In . SVG Version: 6.00 Build 0)  -->
<svg version="1.1" id="Layer_1" xmlns="http://www.w3.org/2000/svg" xmlns:xlink="http://www.w3.org/1999/xlink" x="0px" y="0px"
	 viewBox="0 0 161 160" style="enable-background:new 0 0 161 160;" xml:space="preserve">
<style type="text/css">
	.st0{fill:#C53198;}
	.st1{fill:#BA94C6;}
</style>
<g>
	<g>
		<path class="st0" d="M53.8,82.4c0,0-9.2,8.3-11.9,23s-2.8,17.4,3.7,21.1c6.4,3.7,29.4,10.1,58.8-4.6S142.9,87,141,71.4
			c-1.8-15.6-10.8-24.1-14.7-27.6c-10.4-9.2-13.8-9.2-13.8-9.2s16.1,13.3,5.1,30.8C106.6,82.9,78.1,92.1,53.8,82.4z"/>
		<path class="st0" d="M57.9,40.6c0,0-17.8,5.8-9.2,27.6c5.8,14.6,30.3,14.7,45,9.2c14.7-5.5,25.7-18.4,21.1-32.1
			s-14.7-15.6-20.2-15.6c-5.5,0-21.1,0-28.5,7.3c-7.3,7.3-5.5,16.5,4.6,20.2c10.1,3.7,27.6-0.9,27.6-11S88.2,34.2,81.8,36
			s-5.5,7.3-2.8,8.3c2.8,0.9,4.6,1.8,2.8,3.7c-1.8,1.8-11.9,0.9-10.1-7.3s12.9-11.9,23-7.3s14.7,21.1-6.4,29.4S51.5,56.2,57.9,40.6z
			"/>
		<path class="st1" d="M41.8,60.4c0,0,0.9,8.3,3.7,12.9c2.8,4.6,1.8,4.6,1.8,4.6s-3.7,2.8-9.2,17.4s-0.9,27.6-2.8,27.6
			s-15.6-6.4-15.6-13.8C19.8,101.7,17,76.9,41.8,60.4z"/>
	</g>
</g>
</svg>
