<?xml version="1.0" encoding="utf-8"?>
<!-- Generator: Adobe Illustrator 21.1.0, SVG Export Plug-In . SVG Version: 6.00 Build 0)  -->
<svg version="1.1" id="Layer_1" xmlns="http://www.w3.org/2000/svg" xmlns:xlink="http://www.w3.org/1999/xlink" x="0px" y="0px"
	 viewBox="0 0 161 160" style="enable-background:new 0 0 161 160;" xml:space="preserve">
<style type="text/css">
	.st0{fill:#AA51AD;}
	.st1{fill:#C68BC9;}
</style>
<g>
	<g>
		<path class="st0" d="M79.1,32.8c-31.6-1-52.6,20-57,25.5s-1.7,11.5,0.1,14c1.8,2.5,6.1,7.1,6.1,7.1s21-24.8,50.8-25.2
			s54.1,24.6,54.1,24.6s7.5-8.4,8.8-13.7c1.2-4.9-3.8-9.1-8.1-12.7C129.5,48.7,113.6,34,79.1,32.8z"/>
		<path class="st0" d="M32.4,83.8c0,0,18.9-24.1,47.4-23s48.8,23,48.8,23l-26.4,29.3c0,0-6.9-10-21.7-10.9s-21.9,10.9-21.9,10.9
			L32.4,83.8z"/>
		<path class="st1" d="M64.6,119.5c0,0,6.2-7.5,16-7.3c9.8,0.2,15.6,7.3,15.6,7.3s-8.9,14.1-15.1,14.6
			C74.9,134.5,64.6,119.5,64.6,119.5z"/>
		<path class="st1" d="M71.9,134.1c0,0-13.5-15.9-18.5-19.1s-11.7-2-14.1,5.7c-2.4,7.7,2.8,13.2,8.5,13.4S71.9,134.1,71.9,134.1z"/>
		<path class="st1" d="M88.8,134.2c0,0,18.1,0,24.8,0s11.3-11.3,6.6-17.6c-4.8-6.4-11.9-3.2-17.7,3S88.8,134.2,88.8,134.2z"/>
	</g>
</g>
</svg>
