<?xml version="1.0" encoding="utf-8"?>
<!-- Generator: Adobe Illustrator 21.1.0, SVG Export Plug-In . SVG Version: 6.00 Build 0)  -->
<svg version="1.1" id="Layer_1" xmlns="http://www.w3.org/2000/svg" xmlns:xlink="http://www.w3.org/1999/xlink" x="0px" y="0px"
	 viewBox="0 0 161 160" style="enable-background:new 0 0 161 160;" xml:space="preserve">
<style type="text/css">
	.st0{fill:#AA51AD;}
	.st1{fill:#C68BC9;}
</style>
<g>
	<g>
		<path class="st0" d="M31.9,87.7c0,0,21.2-20.1,49.8-20.5s48.7,20.5,48.7,20.5l16.5-16.3c0,0,3.1-6.7-1.8-9.8c-4.9-3.1-8.5,0-8.5,0
			s1.6-6-3.6-8.5c-5.1-2.5-9.4,1.6-9.4,1.6s1.8-6.3-4.7-8.7c-6.5-2.5-8.5,4-8.5,4s0.4-7.4-6.3-8.7c-6.7-1.3-8.3,5.1-8.3,5.1
			s-1.1-7.4-7.4-7.6c-6.3-0.2-7.1,6.3-7.1,6.3s-3.8-7.6-8.7-6.3c-4.9,1.3-5.8,7.2-5.8,7.2S64,39.2,58,41.2c-6,2-5.8,8.7-5.8,8.7
			s-4-6.3-9.2-3.6c-5.1,2.7-4.2,8.5-4.2,8.5s-5.6-5.1-10-1.6c-4.5,3.6-2.5,8.3-2.5,8.3s-4.5-3.3-9.2,0.2s-1.6,9.4-1.6,9.4L31.9,87.7
			z"/>
		<path class="st0" d="M36.1,92.3l7.8,6.9c0,0,13.8-14.5,37.3-15.2s37.3,15.2,37.3,15.2l7.4-7.6c0,0-18.6-19-44.7-18.1
			C55.1,74.5,36.1,92.3,36.1,92.3z"/>
		<path class="st0" d="M48.4,103.5c0,0,15.4-14.1,32.8-13.6c17.4,0.4,33.1,13.6,33.1,13.6L102,116.5c0,0-7.1-8.7-20.7-8.7
			s-20.4,8.7-20.4,8.7L48.4,103.5z"/>
		<path class="st1" d="M65.1,120.7c0,0,8.9,9.2,10.3,10.3c1.3,1.1,3.1,2,5.9,2c2.8,0,4.8-0.9,6.8-2.7c2-1.8,9.4-9.6,9.4-9.6
			s-5.6-6.3-16.2-6.3S65.1,120.7,65.1,120.7z"/>
		<path class="st1" d="M91.9,134.1c0,0,14.3,0.4,19.9,0c5.6-0.4,8.5-5.1,6.9-10.4c-1.6-5.2-8.5-6.6-14.5-1.5
			C98.2,127.4,91.9,134.1,91.9,134.1z"/>
		<path class="st1" d="M70.9,134.3c0,0-14.7,0.2-19.9,0s-8.5-5.3-7.1-10.6c1.3-5.2,9.8-6.1,13.4-2.6S70.9,134.3,70.9,134.3z"/>
	</g>
</g>
</svg>
