<?xml version="1.0" encoding="utf-8"?>
<!-- Generator: Adobe Illustrator 21.1.0, SVG Export Plug-In . SVG Version: 6.00 Build 0)  -->
<svg version="1.1" xmlns="http://www.w3.org/2000/svg" xmlns:xlink="http://www.w3.org/1999/xlink" x="0px" y="0px"
	 viewBox="0 0 80.7 129.6" style="enable-background:new 0 0 80.7 129.6;" xml:space="preserve">
<style type="text/css">
	.st0{fill:#FFCC99;}
	.st1{fill:#C14C8F;}
	.st2{fill:#751A59;}
	.st3{fill:#E573AA;}
	.st4{fill:#FFCCCC;}
</style>
<g id="swishy-outline_1_">
	<path id="swishy-outline" class="st0" d="M31.1,42.9c0,0-5,9.3-1.7,9.8c3.3,0.5,6.8,2,5.3,5.8s-3.2,21-4.2,26.8s1.7,9.7,4.5,9.7
		c2.8,0,8.8-1.2,6.6,4.2c-2.2,5.3-2,9.2,1.5,11.2s0.7,7.8,2.2,11.8s3,7.3,3,7.3s-2.8-7.8,0-14c2.8-6.2-2-7,2.2-12.7s8.3-13,4-16.7
		c-4.3-3.7-7.5-4.7-5.2-16.3c2.3-11.7,5.3-26.2,2.5-27c-2.8-0.8-4.5-12.7-4.5-12.7L31.1,42.9z"/>
</g>
<g id="swishy_1_">
	<path id="swishy" class="st1" d="M29.5,48.9c0,0-0.7,2.8,1.5,3.1c2.2,0.4,4.6-1.2,5.1,1.2s0.5,4.5-0.8,9.7s-1.9,12-2.4,15.8
		s-1.8,10.8,0.2,12.9s2.9,1.1,5.9,1.7c3,0.6,4.8,0.2,4.8,2.7s-2.3,6.1-1.4,10.2c0.9,4.2,3.4,2.6,3.9,4.8s0,5.5,0,5.5
		s1.3-1.6,0.8-6.9s-0.2-6.5,2.4-9.4c2.6-2.9,6.1-8.2,4.3-11s-5.6-3.2-6.8-8.4S47,69.1,48.5,63s2.1-9.8,2.8-14.9s-1.8-3.3-2.9-6.2
		s-3.1-8.1-3.1-8.1L29.5,48.9z"/>
</g>
<g id="arms_1_">
	<g id="arms">
		<path class="st2" d="M19.4,48c0,0,0,4.8,0,10.5s-3.8,18.3,0,19.3s2.8,6.5,2.5,12.5s11.2,10,11.2,10s-9.9-4.9-9.2-12.1
			s0.4-11.6-2-12.6s-2.2-2.4-1.4-10.6S21.2,48,21.2,48H19.4z"/>
		<path class="st2" d="M25.4,46.7c0,0-0.2,10.4-0.4,16.7s-1.9,9.3,1.3,10s3.8,4.1,6.1,9.1s10.9,4.1,11,7.8s2.9,3,2.9,3
			s-1.2-1-1.4-3.1s-2.2-3.1-7.4-5.4s-5-10-6.4-11.2s-5.3-0.8-4.8-2.5s1.2-13,1.2-19.8S25.4,46.7,25.4,46.7z"/>
		<path class="st2" d="M31.9,44c0,0,1.7,5.9,1.3,10.3s-1.8,8.9,1.4,10.5c3.3,1.6,2.1,5.8,4.3,11.4c2.2,5.6,7.3,2.1,8.9,6.8
			c1.6,4.7,1.3,7.7,1.3,7.7s1.2-6-0.7-9.8c-1.8-3.8-5.8-0.8-7.8-5.4c-2-4.6-2.2-11.3-4-12s-3-0.3-2.6-6.2S34.6,44,34.6,44H31.9z"/>
		<path class="st2" d="M47.5,30.3c0,0,8.5,0.8,11.7,5.8s2.5,15,9.7,20.3s11.5,4.7,11.8,8.2c0.3,3.5-1.3,6.3-1.3,6.3s1.7-7.2-1.7-7.6
			c-3.3-0.4-12-4.1-13.6-7.6c-1.6-3.5-5.3-17.3-7.6-18.8s-7.5-3-7.5-3L47.5,30.3z"/>
		<path class="st2" d="M44,35.1c0,0,6.7,1,9.5,4.3c2.8,3.3,1.8,9,5.2,15.3S60.5,62,67,65.3c6.5,3.3,1.7,10.8,1.7,10.8s2-4.9-1.7-7.8
			c-3.7-2.8-8.5-3.9-10.5-12.7s-3.7-15.8-6.9-16.3c-3.2-0.5-6.4-2-6.4-2L44,35.1z"/>
		<path class="st2" d="M37.5,40.8c0,0,5.2,4.5,7,10.4c1.8,5.9-0.6,5.7,1.8,9.4c2.4,3.7,3,1.2,4.7,5.9c1.7,4.6-2.2,7.7,1.6,9.6
			c3.7,1.9,4.2,7.9,4.2,7.9s-0.3-8.4-1.6-9.8s-1.3,0.1-2.6-6.8s-4.1-5.3-5.1-9.6s1-5.6-3-11.5s-4.7-8-4.7-8L37.5,40.8z"/>
	</g>
</g>
<g id="jelly-body">
	<path id="jelly" class="st3" d="M49.5,23.6c-1.4-0.7-6.4,1.1-6.4,1.1s-0.5-7.3-2.4-12.5c-1.9-5.2-7.4-9.5-16.4-10.3
		c-9-0.8-14.5,3.8-14.5,3.8c4-0.2,2.6,4.4,1.1,7.2c-1.5,2.8-3.7,4.8-6.3,5.3c-2.7,0.6-2.7-2.9-2.7-2.9S1,19.8,1,23.1
		s1.5,9.8,5.7,13.5s9.6,4.6,9.6,4.6s0.4-0.5,0.7,1.6c0.2,2.1,0,4.2,0,5.9s1.4,1.2,1.4,1.2s0.6-1,0.6-3.1s-1.2-4.5-1.2-4.5
		s1,0.6,1.8,2.8c0.8,2.2,0.4,4.8,0.4,4.8s0.7,0,2,0c1.3,0,3.4-0.2,4.3-1.9c0.9-1.7,0.6-6.2,0.6-6.2s0.3,0.8,0.8,1.7
		c0.4,0.9-0.5,4-0.5,4s1.2,0.2,2.5,0s2.8-1.4,3.5-3.4s-0.8-5.8-0.8-5.8s1.5,1.1,1.8,2.7c0.3,1.6,0.5,3.1,0.5,3.1s2.1,0.3,4.1-0.4
		s2.9-2.8,3.2-4.7c0.2-1.8-1.2-5.2-1.2-5.2s2,2.5,2.4,3.6c0.4,1.1,3-2.4,4.3-4.3c1.3-1.9,1.9-3.5,0.8-4.2c-1.1-0.7-5-1.2-5-1.2
		s0,0,1.7-0.1c1.7-0.1,4.8,0.4,5.3,0.6S51,24.3,49.5,23.6z"/>
</g>
<g id="jelly-outline_1_">
	<g id="jelly-outline">
		<path class="st4" d="M51.6,22.3c-1.5,0.1-7.1,0.1-7.1,0.1s1.1-9-3.9-14.6C36.7,3.4,22.7-4,11.1,2.7c-9,5.2-13.3,16-10,27
			c3.3,11.1,15.1,12.4,15.1,12.4s0.6,4.5,0,6.3c-0.6,1.8,0.6,2.5,2.7,2.4s3,1,6,0c3-1,2.4-1.9,4.6-1.9s3.6-3.2,5.4-3.1
			s5.1-0.6,6.5-2s1-3.5,2.1-4.1s4.9-4.5,5.5-5.8s3.1-4.8,3.2-5.9S53.1,22.2,51.6,22.3z M50.3,28.1c-0.5-0.2-3.7-0.7-5.3-0.6
			c-1.7,0.1-1.7,0.1-1.7,0.1s3.9,0.5,5,1.2c1.1,0.7,0.5,2.2-0.8,4.2c-1.3,1.9-3.9,5.4-4.3,4.3c-0.4-1.1-2.4-3.6-2.4-3.6
			s1.4,3.4,1.2,5.2c-0.2,1.8-1.2,3.9-3.2,4.7S34.6,44,34.6,44s-0.2-1.5-0.5-3.1c-0.3-1.6-1.8-2.7-1.8-2.7s1.5,3.8,0.8,5.8
			s-2.2,3.2-3.5,3.4s-2.5,0-2.5,0s0.9-3.1,0.5-4c-0.4-0.9-0.8-1.7-0.8-1.7s0.3,4.5-0.6,6.2c-0.9,1.7-3,1.9-4.3,1.9c-1.3,0-2,0-2,0
			s0.4-2.7-0.4-4.8c-0.8-2.2-1.8-2.8-1.8-2.8s1.2,2.4,1.2,4.5s-0.6,3.1-0.6,3.1s-1.4,0.5-1.4-1.2s0.2-3.8,0-5.9
			c-0.2-2.1-0.7-1.6-0.7-1.6s-5.4-0.9-9.6-4.6S1,26.4,1,23.1s0.9-7.7,0.9-7.7s0,3.5,2.7,2.9c2.7-0.6,4.8-2.5,6.3-5.3
			c1.5-2.8,2.9-7.5-1.1-7.2c0,0,5.5-4.7,14.5-3.8c9,0.8,14.5,5.2,16.4,10.3c1.9,5.2,2.4,12.5,2.4,12.5s5-1.8,6.4-1.1
			C51,24.3,50.8,28.3,50.3,28.1z"/>
		<ellipse transform="matrix(0.5 -0.866 0.866 0.5 0.7472 24.3585)" class="st4" cx="21.5" cy="11.5" rx="3.8" ry="4.8"/>
		<ellipse transform="matrix(0.4117 -0.9113 0.9113 0.4117 -13.9787 24.7903)" class="st4" cx="12.2" cy="23.2" rx="3.4" ry="5.1"/>
	</g>
</g>
</svg>
