<?xml version="1.0" encoding="utf-8"?>
<!-- Generator: Adobe Illustrator 21.1.0, SVG Export Plug-In . SVG Version: 6.00 Build 0)  -->
<svg version="1.1" xmlns="http://www.w3.org/2000/svg" xmlns:xlink="http://www.w3.org/1999/xlink" x="0px" y="0px"
	 viewBox="0 0 294.7 347.8" style="enable-background:new 0 0 294.7 347.8;" xml:space="preserve">
<style type="text/css">
	.st0{fill:#8DCEB7;}
	.st1{fill:#469B74;}
	.st2{fill:#00B1A6;}
	.st3{fill:#04665A;}
	.st4{fill:#59221B;}
	.st5{fill:#7C2E1E;}
	.st6{fill:#D8BFB2;}
	.st7{fill:#AD776D;}
	.st8{fill:#FFFFFF;}
	.st9{fill:#A00753;}
</style>
<g id="fin">
	<path id="fin_2_" class="st0" d="M55.2,273.5c0,0-26,0.3-41.5-21.8s-15.5-49.2-8-72.7s30-34.4,31-64.9s-7-47.6-7-47.6
		s21.5,35.7,25.5,54.6s5.5,30.4,5.5,30.4s-2-3.6,4.5-14.3s14-16.1,14-16.1s-7,13.5-3,29s17,27.7,21.5,46.6s-2.3,46.5-10.1,59.2
		S70.7,275.3,55.2,273.5z"/>
</g>
<g id="fin-outline">
	<g id="fin-outline_1_">
		<path class="st1" d="M60.9,274.4c0,0-31.1,2.4-47.2-22.7s-16.8-44.2-8-72.7s29.7-45.1,30.5-61.2c0.8-16,0.4-20.5-1-31.1
			c-1.4-10-5.4-20.3-5.4-20.3s18.1,27.4,23.8,45.6s8.2,35.9,11.2,54.9s12,30.9,10.5,55.7S60,259.7,60,259.7s14.4-26.1,12.2-44.1
			s-7.2-28.2-10.5-45.6S58,137,50.9,114S35.2,79,35.2,79s10.4,25.7,1.5,49c-6.5,17-17.5,24-26.5,46.5S0,223.2,11.7,242
			c13.2,21.3,24.7,25.5,32.8,27.3s15.8,1.6,15.8,1.6L60.9,274.4z"/>
		<path class="st1" d="M65.7,270.7c0,0,5.8-0.5,12.2-6.3c6.3-5.8,13.5-19,16.7-36.2s3-27.7-2.7-41.2c-5.7-13.5-13.7-22.2-16.5-32.3
			c-2.8-10.2-3-12.5-2.7-17.2c0.3-4.7,1.7-8.8,1.7-8.8s-5.7,6.7-8.7,13.3c-3,6.7-4.5,11.3-4.5,11.3l-1.2-6.4c0,0,3.7-8.9,10.3-17
			c7.8-9.5,8.9-8.8,8.9-8.8s-7,18.3-2.4,31.2c4.6,12.9,7.3,14,14.5,27.9s9.5,23.3,7.3,39.4c-2.2,16.1-4.7,28.2-14,40.6
			s-15,11.6-15,11.6L65.7,270.7z"/>
	</g>
</g>
<g id="tail">
	<path id="tail_1_" class="st2" d="M203.7,212.1c0,0-19.5,11.9-23.5,29.4s0,37,0,37s-18.5-12.5-40.5-14s-41,7.5-56.5,7.5
		s-30-7.5-30-7.5s10,21.5,47,28.5s60,11.5,82.5,24.5s43.4,30.5,65,30s37-8.5,41.2-16s9.7-34.5,0-63.5s-38.1-50.3-38.1-50.3
		L203.7,212.1z"/>
</g>
<g id="tail-outline">
	<g id="tail-outline_2_">
		<path class="st3" d="M206.5,201.6c0,0-24,1.4-26.7,8.2c-2.7,6.7,7,7.1,11.2,12.9c4.2,5.8,16.5,4.2,29.5,11.9s22.9,18.3,22.9,18.3
			s6.7-10.6,9.1-18.3s4.7-14.9-1.7-22.5S218.6,201.7,206.5,201.6z"/>
		<path class="st3" d="M191,222.7c0,0-10.5,8.3-12.2,26.9s1.3,28.9,1.3,28.9s-23.5-15.3-45.9-14.2s-45.3,9.4-60.1,6.9
			c-14.8-2.5-21-6.7-21-6.7s7.1,13.8,26.5,22.3c19.5,8.5,37.5,9,51.6,12.4c14.1,3.4,35.6,8.6,51.3,18.3c15.8,9.7,25.9,19,44.9,25.9
			c19.1,6.9,33.9,5.7,51-3.1s18.1-28.3,14.3-56.1c-3.8-27.7-22.7-53.1-38.1-63.2c-15.4-10.1-8.2-2.9-8.2-2.9s11.2,6,18.5,14.3
			s20.2,22.6,24.1,45.6s7.3,41.8-6.6,55.8c-13.8,14-43.7,12.8-59,6.2c-15.3-6.7-29.3-20.2-45.3-27.7S143,298.7,127,295.8
			c-16-2.8-26-3.7-37.3-7.5c-11.3-3.8-18.2-6.7-24.7-13c-6.5-6.3-7.8-6.8-7.8-6.8s9.8,5.2,21.2,5.5c11.3,0.3,30-4.2,42-5.8
			s19.7-3,34.8,1.2c15.2,4.2,28,14,28,14s2,3.5,6.5,9.3c4.5,5.8,11.7,12.2,16.8,16.7s8.1,6.7,9.7,9.7c1.5,3,3,5.8,3,5.8s0.1-5-2-8.3
			c-2.2-3.3-13.5-11.3-20.8-19.7c-7.3-8.3-12.4-15.5-14.7-23.8c-2.3-8.4-1.3-28,2.7-37s9.7-13.3,9.7-13.3H191z"/>
	</g>
</g>
<g id="hair-outline_1_">
	<path id="hair-outline" class="st4" d="M180.2,0.1c0,0-11.4,2.2-16.2,9.9s-5.3,10.2-5.3,10.2s-7.1,4.8-12.8,14.1s-6,17.4-5.4,24.1
		s1.2,5.8,1.2,5.8s-3.3,9.8-5.2,20.8s-2,17.2-0.6,23.9s7.3,13.2,12.3,13.9c5,0.7,11.8-4.1,11.8-4.1s-6.8-0.5-9.1-2.8
		s-2.9-5.2-2.9-5.2s3.2,3.1,8.3,4.1c5.1,1,7.9,2.6,9.3,6.5s0.8,8.1-2.6,9.3c-3.3,1.2-3.6-0.4-5.4,1.1s-1.8,3.9-1.8,3.9
		s1.1-1.1,1.8-1.1s0.8,0,0.8,0s-6.4,3.6-7.4,10.3s0,11.8,4.1,16.3c4.1,4.5,14.7,5.8,14.7,5.8s54.3-33.1,67.7-40.2
		c13.5-7.2,29.4-13.8,32.8-16s9.9-9.1,9-17.7s-3.4-11.9-9.9-15.1s-10.2-3.9-14.6-4.8s-4.4-3.8-4.4-6.1s3.6-7.8,5.3-14.8
		s2.8-12.8,1.6-18.8s-6.4-15.2-12.8-20.2s-11.5-6.3-15.8-6.2S222.9,8,222.9,8s-5.1-3.3-11.4-3.1s-11.1,1.6-11.1,1.6
		S193.1-1.1,180.2,0.1z"/>
</g>
<g id="hair">
	<g id="hair_3_">
		<path class="st5" d="M173.2,165.7c0,0-12.7,0.5-17.3-5.9c-4.7-6.3-3.7-13.7-2-17.8c1.7-4.2,6.6-8.4,6.6-8.4s-0.8-0.7-2.1-0.4
			s-1.9,1.3-1.9,1.3s0.4-2.5,2.4-2.6s5.2,0,6.8-1.8s4.2-7.7-0.1-12.1c-4.3-4.4-9-2.7-13.8-5.9c-4.8-3.2-4.8-3.2-4.8-3.2s0,4.3,3,7.2
			c3,2.8,8.5,2.8,8.5,2.8s-10.1,5.8-16.1-0.9c-6-6.7-6-13.9-4.7-26.7s5.8-27.2,5.8-27.2s-2.8-8.7,0.8-20.5
			c3.7-11.8,16.7-22.8,16.7-22.8S163,12,169.3,7c6.3-5,17-5.2,22-2.8s9,4.3,9,4.3s10-3,14.5-1.5s7.7,2.8,7.7,2.8s14-2.2,21.8,5.7
			c7.8,7.8,13,16.3,11,28s-3.7,14.2-6,19.9c-2.3,5.7,0.9,11.9,6.4,12.1s19.9,5.2,21.2,13.8c1.3,8.7-2.2,17.1-10.3,21.7
			s-32.7,13.3-41.9,17.3c-9.2,4-38.2,19.2-39.7,25.1S173.2,165.7,173.2,165.7z"/>
		<path class="st5" d="M188.2,61.7c13.3-4.3,13.7-7.2,18.2-8c4.5-0.8,8.3,0.5,11.8,2s10,9.2,10,9.2s-0.4-2.3-1.3-5.3
			c-0.2-0.9-0.5-1.8-0.8-2.8c-1.5-4.8-3.8-10-6.7-10.8c-2.8-0.7-27.5,8.4-37.8,10.4c-10.3,2-19.2,7.6-19.2,7.6S171.5,67,188.2,61.7z
			"/>
	</g>
</g>
<g id="hair-shadow_2_">
	<g id="hair-shadow">
		<path id="hair-shadow_1_" class="st4" d="M158.3,62c0,0-2.1,14.1-2.1,23.2s5.7,19.9,15.4,24.6s20.6,4.3,16.6,11.2
			s-14.2,15.5-8.7,23.9c5.5,8.5,13.2-9.6,30.2-10.8s31.8-18.7,39-19.6s13.8-16.3,7.9-20.2c-5.9-3.9-20.4-7.1-20.2-15.3
			s-7.5-21.7-19.3-19.1C160.5,72.2,158.3,62,158.3,62z"/>
		<path class="st4" d="M158.3,62.9c0,0,6.6,3.9,23.4,0.6s20.5-9.6,28-9.7c7.5-0.1,18.5,11.1,18.5,11.1s-9-17-18.5-15.4
			s-15.4,7.8-26.5,10.5C166,64.2,149,55.4,149,55.4L158.3,62.9"/>
	</g>
</g>
<g id="body">
	<path id="body_3_" class="st6" d="M289.7,169.5c-1.7-9.8-8.2-19.7-14.3-29.2c-6.2-9.5-12.5-25.5-19.3-26.3
		c-6.7-0.8-17.4,2.8-21.4-2c-4-4.8-5.2-11.5-6.5-15.8s-3-12.4-3-12.4s3.6-7.9,3.9-12.4s0.6-5.1,0.6-5.1s3.9,0.5,5-2.6
		c1.1-3.1-0.1-6.5-0.1-6.5s-3.3,1.2-7.4-0.1c-0.4-0.1-0.8-0.3-1.1-0.4c0.3,1,0.6,1.9,0.8,2.8c0.8,3,1.3,5.3,1.3,5.3s-6.5-7.7-10-9.2
		s-7.3-2.8-11.8-2c-4.5,0.8-4.9,3.7-18.2,8C171.5,67,162.3,64,162.3,64c-1.4-0.1-3-1.1-3-1.1s-0.3,0.7,0,2.2c0,0,1.8,9.2,6,12.1
		s5.6,4.5,6.4,6.6s1.8,9.9,4.4,14s7.6,6.6,13,8.5s14.1,2.2,16.8,3.2s3.2,0.9,3.6,2.6s1,6.8-1.9,8.9s-7.5,4.2-11,5.8
		s-7.7,5.9-12,11.1c-4.4,5.2-14,23.8-16.7,28.5c-2.7,4.7-8.5,14.3-8.5,14.3s-0.8-4.3-8.5-14.8c-7.7-10.5-15.1-16.8-16.6-19.5
		c-1.4-2.7-2.1-3.8-1.8-6.3c0.3-2.5-0.8-6.5-3.7-8.5c-2.8-2-6.7-3.2-8.5-5c-1.8-1.8-3.3-2.7-3.3-2.7s-0.3,2.5,1.5,4.5
		c1.8,2,3.5,2.5,3.2,3.5s-0.7,1-4.7,1.5s-6.8-0.7-10-0.7c-3.2,0-4.2,0.2-9-3.2c-4.8-3.3-7.7-8-8.3-6.7c-0.7,1.4,1.3,3.5,1.3,4.7
		c0,1.2,0.7,3,3.7,5.7s2.2,3.5,5.2,6s9.7,7.3,15.7,7.3s9.3-1.2,10.3,0.3s10.7,18.8,15,28.3c4.3,9.5,10.2,22.5,13,24.8
		c2.8,2.3,4,6.8,6.8,6.5c2.8-0.3,7.5-7.7,13.2-15.7c5.7-8,11-12.8,15.8-18.7s9.5-12.2,9.5-12.2s1.5,9.2,3.5,16.2s4.5,10.1,4.5,16.7
		s-0.3,11.8-1.7,15c-1.3,3.2-1.8,4.1-1.8,4.1s4.7,0.8,10.2,5.8s15.7,13.2,19.8,16.8c4.2,3.7,9.2,10.2,9.2,10.2s4.8-11,6.3-17.7
		c1.5-6.7,1.3-9,1.3-9s-6.3-4.3-6.2-13.7c0.2-9.3,2.8-14.8,6.8-19.2c4-4.4,6.6-13.7,8.3-20.8c2-8.4,2-15.5,2-15.5s2.8,13.5,8.5,22.5
		c5.7,9,10.2,12.5,12.3,14.8c2.2,2.2,4,4.8,5.3,2.9C289,187.3,291.3,179.3,289.7,169.5z"/>
</g>
<g id="body-outline">
	<g id="body-outline_4_">
		<g id="body-outline_5_">
			<path class="st7" d="M158.3,62.9c0,0,0.7,4.7,2.7,9s4,5.5,6.2,7.4s4.2,3.4,4.5,6.5s2.2,9.8,5.1,13.9s13.3,7.4,14.7,7.7
				c6.4,1.1,11,1.8,12.9,2.5s4.6,2.2,6.8,0s3.5-3.1,7-8.8s8-16.4,9.8-21.9s2.4-12.8,2.4-12.8s1.5,1.3,3.6-0.3s2.5-5.1,2.5-6.1
				s0-3,0-3l-1.9,0.3c0,0,0.6,2.5,0,5c-0.6,2.6-2.2,2.3-2.2,2.3s1-1.9-0.2-2.9s-1.4-1.4-1.4-1.4l0.4-2.6l-6.3-1.4
				c0,0,4.1,5.9,3.3,11.6c-0.8,5.8-0.8,11.3-4.8,19.5s-7.6,14.2-10.6,17.8c-3,3.6-4.1,4.4-6.2,3.8s-7.1-0.5-12.2-1.5s-12-3.6-16-6.8
				c-3.9-3.2-5.5-12.3-5.7-13.9c-0.2-1.3-1-5.4-5.6-8.3s-6.7-8.9-7.3-10.9s-0.3-4.6-0.3-4.6l-1.3-1.1V62.9z"/>
			<path class="st7" d="M209.3,109.8c0,0,1.1,1.2,1.1,4.7s1.2,5.1-2.8,7.8s-8.1,3.5-12.2,6.3c-4.1,2.8-9.8,8.3-13.6,14.3
				c-3.8,6-8.6,15.6-12.2,21.7s-6.2,11.4-7.6,13.8c-1.3,2.3-2,5-2,5s-0.2-1.2-2.8-5.8c-2.6-4.6-5-9.5-10.8-16.2
				s-13.2-14.2-14.2-16.9c-1-2.7,0.2-4-0.8-7.5c-0.9-3.5-2.6-5.5-5-6.7s-4.3-1.8-6-3.4c-1.6-1.5-3.3-3.3-3.7-3
				c-0.4,0.3,0.4,3.5,1.7,4.7c1.3,1.2,4.3,2.9,2.6,3.9c-1.7,1.1-4.9,1.3-7.5,1.1c-2.7-0.2-5.6-0.7-8.1-0.7s-7-1.9-10.5-5.3
				s-4.8-5.2-5.4-4.9c-0.6,0.2,0.2,2.3,0.8,3.2c0.6,0.9,0.3,2.3,0.7,3.2s2.3,3,4.1,4.9c1.8,1.9,2.8,4,4.2,5.1s7.5,5.2,10.4,6.2
				c2.9,1,6.1,0.9,8.8,0.8c2.7-0.1,8.8-1.6,8.8-1.6s-0.7,1-0.2,3.4c0.4,2.4,5,9.2,9,16.6s8.2,16.3,11.2,23.6c3,7.4,7.5,11,7.5,11
				s0.2,2.5,3,5c2.8,2.5,4.3,2.2,6.3-0.2c2-2.4,5.8-8.8,9.7-14.4s12.4-13.9,18.1-21.6s7.9-13.8,11.4-17.8s5.2-4.6,5.2-4.6
				s-2.9,2.8-5.2,6.9s-3.4,8.8-3.4,8.8s0.8,8.4,3.4,15.4s4.1,11.1,4.2,15.9s0.2,8.5-0.4,12.5s-2,7.7-2,7.7l-1.8-0.5
				c0,0,2.5-5.8,2.9-10.5c0.3-4.7,0.7-10-0.1-13.1c-0.8-3.1-2.5-6.8-3.8-11c-1.3-4.3-1.9-8-2.5-11c-0.6-3-1.1-6.1-1.1-6.1
				s-5.9,8.6-10.3,13.6s-9.5,10.2-12.1,13.8c-2.6,3.6-6.7,9.3-8.3,11.7c-1.7,2.3-2.8,4-4.2,5.4s-3.3,2.9-4.9,1.9s-2.9-3.7-4.2-5
				c-1.3-1.3-2.4-2.3-4.2-5.3c-1.8-3-4.3-8.2-6.2-12.4c-1.9-4.1-6.4-13.8-8.5-17.8c-2.1-4-5.5-10.7-7.2-13.5
				c-1.7-2.9-3.1-5.6-3.5-5.8s-0.9-0.5-2-0.2c-1.1,0.3-7.2,1.4-12.2,0s-9.1-3.4-10.7-4.8c-1.6-1.4-4.4-4.9-6-6.8
				c-1.6-1.9-3.2-4.3-3.6-5.4c-0.5-1-0.1-2.1-1.1-4.3c-1.1-2.2-0.6-3.6,0.3-3.2c0.9,0.4,4.8,5.3,7.6,7.2c2.8,1.8,4.8,3.2,7.5,3.2
				c2.8,0,5.1,0.2,8.8,0.5c3.7,0.3,7.8-0.3,7.5-1.2c-0.3-0.9-2.6-2-3.4-3.2c-0.8-1.3-1.3-2.6-1.4-4s0.3-1.5,1.1-0.9
				c0.8,0.6,3.2,3.3,5.2,4.4c2,1,6.6,2.7,7.9,4.7c1.3,2,2.4,5.1,2.1,7.2c-0.3,2.2-0.1,4.3,2.4,7.4c2.5,3.1,9.9,10.7,13,14.6
				c3.1,3.9,9.2,13,10.2,15.5c1,2.5,1.3,2.9,1.3,2.9s4.5-7.9,7.7-13.6s7.3-13.7,12.2-21.8c4.9-8.1,10-14.7,16.4-18.2
				c6.4-3.5,12.6-5.2,13.2-8.9c0.6-3.7-0.4-7.2-0.4-7.2L209.3,109.8z"/>
			<path class="st7" d="M196.9,163.3c0,0,0.6,5,3.9,13.5c3.3,8.5,5,9.7,5.5,18s0,10.5,0,10.5s2.8-13.2,0-21
				c-2.8-7.9-5-13.6-5.3-19.7c-0.2-3.9,0-8.2,0-8.2L196.9,163.3z"/>
			<path class="st7" d="M211.2,109.9c0,0,8.5-8.8,10.9-12.5s4.5,2.4,5.4,6.2s4,9,7.2,11s6.6,0.6,14,0c0,0,6.7-1.2,9.9,1
				c3.2,2.2,6.4,7.6,10,14.5s7.6,12.6,10.9,18.4s8.7,15.1,9.5,20.6s-0.4,16.9-0.9,17.1s-1.4,2.2-3.4-0.6s-3.5-2.5-7.8-7.4
				s-9.4-13.9-11.4-20.1s-3.2-11.4-4.6-16.4c-1.4-5.1-3.2-10.6-3.2-10.6s0.8-0.8,1.2-1.8s0.6-2.6,0.6-2.6s-2.1,3.2-4.5,4.5
				c-2.4,1.3-8.1,2.3-14.1,2.9s-8.8-0.2-10.6-1.4c-1.7-1-5.8-3.5-6.4-5.8s-2.6-6.8-0.9-6.1s6.6,2.4,11.6,2.2s7.7-1.6,7.7-1.6
				s-4.5,1.1-5.9-0.7s0-3.1,0-3.1s2.6,2.8,6.8,1.9s5-2.6,9.4-2.9s7.4,0.9,9.1,3.5s3.4,5.4,3.4,5.4s-3-10.4-10.2-9.9
				s-6.6,1.2-10.1,2.6c-3.5,1.4-4.8,1-6.1,0.1c-1.3-0.9-1.5-1.8-2.1-1.6c-0.6,0.2-1.3,1.5-1.2,2.7c0.1,1.2,0.8,1.8,1.2,2.2
				c0.5,0.4,1.1,0.6,1.1,0.6s-3.3,0.5-6.4-0.1c-3.1-0.7-6.7-1.9-8.1-2.2c-1.4-0.3-1.7-0.2-1.5,1.5c0.2,1.7,1.4,4.5,1.6,5.7
				s2.2,4.5,3.4,5.8s4.9,3.2,7.7,3.6c3.7,0.5,4.9,0.8,11.8-0.2c6.9-1.1,9.2-4.4,9.2-4.4s1.6,2.2,2.4,6.2s3.8,11.2,4.6,13.9
				c0.8,2.7,0.8,3,1.8,6.2c1,3.1,2.9,8.8,5.5,13c2.7,4.3,5.7,8.1,8.3,10.9s4.8,4.8,6.7,6.4s2.2,2,3.4,0.5c1.2-1.5,2-6.3,2.2-8.7
				c0.2-2.4,0.4-8.8-1.3-14.6s-4.5-11.3-7.3-16.1s-6.9-10.6-9.3-15s-6.4-11.8-8.7-14.9s-4.2-5.8-7.7-6.1s-9.6,0.6-12.8,0.7
				c-3.3,0-5.8-0.1-8.1-2.3c-2.3-2.2-3.7-6-4.4-8.2s-2.1-7-2.8-9.9s-2.2-8.9-2.2-8.9s-2.7,6.2-4.5,9.5
				C219.2,97.7,211.2,109.9,211.2,109.9z"/>
			<path class="st7" d="M264.2,124.2c0,0,1.3,2.9,3.8,6.9c2.5,4,4.5,8.6,7.9,13c3.4,4.4,7.7,12.1,7.7,12.1s-5.8-11.5-8.6-16
				c-2.8-4.5-9.5-16-9.5-16s-2.2-4.5-4.4-5.7S261.5,119.1,264.2,124.2z"/>
			<path class="st7" d="M186.1,88.6c0,0,0.6,2.5,0.3,3.9c-0.3,1.4,0.3,2.1,1.4,2.5c1.1,0.4,2.2,0.3,2.2,0.3s-2.2,1.4-3.8,0.4
				s-1.8-1.4-1.7-4.2c0.1-2.7-0.2-6.5-0.2-6.5S185.7,87.1,186.1,88.6z"/>
			<path class="st7" d="M261.5,150.1c0,0,0,9-3.2,20c-2.5,8.5-7,15.6-10.1,21.6c-3.1,6-3.7,11.3-3,15.9c0.7,4.6,5.3,10.5,5.3,10.5
				s-0.7,1-5-5.2c-4.2-6.1-1.1-15.9,0.3-19.4c1.4-3.4,4.7-7.5,6.9-11.7c2.5-4.9,4.8-10.8,6.1-16.2c1.9-8,1.7-18.7,1.7-18.7
				L261.5,150.1z"/>
			<path class="st7" d="M235.9,216.9c0,0,0.3-3.3-0.6-3.3c-0.9,0-1.6,1.7-0.8,3.3c0.8,1.7,1.3,2.7,1.4,3.8c0.1,1.1,1.2,2,1.2,2
				s-0.8-1.3-0.9-3.2S235.9,217.6,235.9,216.9z"/>
			<path class="st7" d="M251.8,133.1c0,0,6.2,9,7.5,14.9c0.9,4.1,0.9,10.5,0.2,14.1s3.2-14.3,1.4-20.5c-1.8-6.2-5.9-10.6-5.9-10.6
				L251.8,133.1z"/>
		</g>
		<path class="st7" d="M226.9,59.6c0.8,3,1.3,5.3,1.3,5.3s-6.5-7.7-10-9.2s-7.3-2.8-11.8-2c-4.5,0.8-4.9,3.7-18.2,8
			C171.5,67,162.3,64,162.3,64s6.2,3.4,15,1.6C186,63.9,190.5,63,196,61s10.4-5.1,14.6-4c4.2,1.1,9.2,3.4,11.9,5.9
			c2.8,2.5,6.1,6.8,6.1,6.8v-8.2C228.7,61.5,228,60.7,226.9,59.6z"/>
	</g>
</g>
<g id="bra-body">
	<g id="bra-fore_2_">
		<path class="st2" d="M215,167.9c1.3,0.7-0.2,3.3,2.4,3.5c2.7,0.2,12.8,0.2,13.3-1.8c0.4-2,0.7-3,3.1-4.9c2.4-2,3.8-7.5,2.9-13.3
			s-3.3-3.5-5.3-4.9c-2-1.3-4.7-0.4-6.6-1.3c-2-0.9-6.2,0.3-7.8,1.4c-1.6,1.1-2,2.6-4.6,3.5c-2.5,0.9-2.8,4.9-2.9,6.6
			C209.4,160,208.6,164.3,215,167.9z"/>
		<path class="st2" d="M261.4,149.3c-0.6-0.3-0.7-0.6-1.1-1.2c-1.4-2.1-3.4-0.8-5.4-2.3c-2-1.5-4.5,0.2-6.5,0s-3.2,3.8-4.8,4.8
			s-3.8,3.2-3.5,5.2s0.5,8.4,5.2,11.2c2,1.2,0.2,3.3,3.5,3s11.2,0.6,11.2-1.6c0-2.7,3.2-2.6,4.2-4.6c0.3-0.6,0.6-1.3,0.8-2.2
			c-0.4-1.1-0.9-2.4-1.4-4C262.7,153.6,262.5,152.4,261.4,149.3z"/>
	</g>
</g>
<g id="bra-outline">
	<g id="bra-outline_2_">
		<path class="st3" d="M237.1,151.8c-0.9-6-3.5-3.7-5.6-5.1c-2.1-1.4-4.9-0.4-7-1.4c-2.1-1-6.5,0.3-8.1,1.5
			c-1.6,1.2-2.1,2.7-4.8,3.7c-2.6,0.9-3,5.1-3,6.9c-0.1,3.3-0.9,7.8,5.8,11.6c1.4,0.8-0.2,3.5,2.6,3.7c2.8,0.2,13.5,0.2,13.9-1.9
			c0.5-2.1,0.7-3.1,3.3-5.1C236.6,163.7,238,157.9,237.1,151.8z M236.1,158.3c-0.6,4.6-2.3,5.6-3.9,6.8s-1.8,2.2-2.4,3.8
			s-2.5,1.5-4.8,1.8s-6.4,0.2-7.7,0s-0.9-2.2-1.5-3.1s-1.9-1.2-3.2-2.5s-2-2.2-2.1-6.4c-0.1-4.2,0.6-6.2,1.6-7.2s3.1-1.2,4.2-2.6
			s1.8-1.6,3.9-2.4c2.4-0.9,3.3,0.1,4.6,0.5s4.1-0.3,5.6,0.5s2.7,0.6,3.9,1.1S236.7,153.7,236.1,158.3z"/>
		<path class="st3" d="M263.8,158c-1.2-4.1-1.4-5.3-2.5-8.6c-0.6-0.3-0.7-0.6-1.1-1.2c-1.5-2.2-3.5-0.8-5.5-2.4
			c-2.1-1.5-4.7,0.3-6.7,0c-2.1-0.3-3.4,3.9-4.9,4.9s-3.9,3.4-3.6,5.4c0.3,2.1,0.5,8.7,5.4,11.6c2.1,1.2,0.3,3.4,3.6,3.1
			c3.4-0.3,11.6,0.7,11.6-1.7c0-2.8,3.4-2.7,4.4-4.8c0.3-0.6,0.6-1.4,0.8-2.2C264.8,161,264.3,159.7,263.8,158z M263.9,163.6
			c-0.5,0.8-1.7,1.5-2.8,2.2c-1.1,0.6-1.3,1.6-1.4,2.3c0,0.7-0.7,0.7-2.2,1s-5.3,0.2-7.5,0.2c-2.1,0-2.2-0.2-2.5-0.5
			c-0.3-0.3-0.1-1.6-1-2.2c-0.9-0.6-2.8-1.7-3.8-3.9c-0.9-2.3-1.9-6.8-1.5-8.2c0.4-1.4,1.8-2.4,2.9-3.2c1.1-0.8,1.5-2.2,2.4-3.6
			c0.9-1.4,1.5-1.2,2.2-1.3c0.7,0,2.1-0.4,3.2-0.7s1.6,0,1.6,0c0.6,0.1,1.2,0.8,2.1,1.3c0.9,0.5,1.8,0.2,2.9,0.6
			c1,0.4,1.8,1.9,2.2,2s0.7,2.7,1.4,4.9c0.7,2.2,2.4,7.2,2.4,7.2S264.4,162.8,263.9,163.6z"/>
	</g>
</g>
<g id="face-features">
	<g id="eyes_2_">
		<path d="M193.5,76.6c0,0,5.2-0.4,9.6-3s5.5-7.4,5.5-7.4l2.8-2l2.9,0.9l-2,1.1l3.4,1.1c0,0-3.5,0.4-4,1s-0.8,3.1-3.8,5.1
			S201,76.9,193.5,76.6z"/>
		<g>
			<path d="M180.2,79.1c0,0-4.2,3.1-6.5,3.5c-2.3,0.4-3.2-0.7-3.2-0.7s-1.4,1.8-1.7,2.2c-0.3,0.4-0.3,0.4-0.3,0.4l2.2-0.6
				c0,0,1.6,1.5,3.4,1.2C177.1,84.5,180.2,79.1,180.2,79.1z"/>
			<polygon points="170.6,81.6 168.3,82.5 171.2,82.6 			"/>
		</g>
	</g>
	<g id="eyebrows_2_">
		<path class="st5" d="M188.2,67.6c0,0,0.8,1.1,1.7,1.8c0.9,0.6,1.7,0,1.7,0s2.1-2.1,5.8-4.1c3.7-2,5.1-2.9,7.9-3.5s4.4-0.6,4.4-0.6
			s-4.8-1.5-7.1-1s-5.5,2.6-8.1,4.1C191.8,65.6,188.2,67.6,188.2,67.6z"/>
		<path class="st5" d="M174.8,73.2c0,0,1.2,1.3,1.4,2c0.3,0.7,0,1.3-2.5,1.7c-2.5,0.4-2.7,0.1-4.6,1.2c-1.2,0.7-1.5,1.1-1.5,1.1
			l-0.9-0.9c0,0,0.4-0.4,2-1.5s3-1.7,4.2-2.4C174.1,73.7,174.8,73.2,174.8,73.2z"/>
	</g>
	<polygon id="teeth_2_" class="st8" points="194.1,100.8 195,101.4 201.7,101.9 205.7,97.2 207.9,92.9 202.8,94.4 199.2,97.9 
		195.6,98.8 	"/>
	<g id="lips_2_">
		<path class="st9" d="M191.7,101.4c0,0,1.4-0.8,2.2-1.9c0.8-1.1,1.4-1.4,2.3-1.6c0.9-0.2,1.9-0.2,2.9-1.3s1.4-2.4,4.2-3.1
			c2.8-0.7,3.6-0.1,5.2-2.3c1.6-2.2,3.1-3.8,3.1-3.8s-2.9,5.9-5.5,7c-2.6,1.1-4.2,2.2-4.5,3c-0.3,0.8-2.6,2.2-3.8,2.2
			c-1.2,0-1.5,0.7-3.8,1.2C191.7,101.4,191.7,101.4,191.7,101.4z"/>
		<path class="st9" d="M209.9,90.5c0,0-1.4,3.4-2.3,5.5c-0.9,2.1-1.2,4.4-3.5,6.3c-2.3,1.8-5.4,0.7-6.3,0.6
			c-0.9-0.1-2.8-1.5-2.8-1.5s2.8,0.4,4.3,0c1.5-0.4,1.1-0.5,3.1-1.8c2-1.2,3-4,4.6-5.8C208.7,92,209.9,90.5,209.9,90.5z"/>
	</g>
</g>
</svg>
