<?xml version="1.0" encoding="utf-8"?>
<!-- Generator: Adobe Illustrator 21.1.0, SVG Export Plug-In . SVG Version: 6.00 Build 0)  -->
<svg version="1.1" id="questionmark" xmlns="http://www.w3.org/2000/svg" xmlns:xlink="http://www.w3.org/1999/xlink" x="0px"
	 y="0px" viewBox="0 0 70 70" style="enable-background:new 0 0 70 70;" xml:space="preserve">
<style type="text/css">
	.st0{fill:#E8A0C6;}
</style>
<path id="circlethingy" class="st0" d="M35,0C15.7,0,0,15.7,0,35s15.7,35,35,35s35-15.7,35-35S54.3,0,35,0z M34.4,58.5
	c-3.2,0-5.7-2.6-5.7-5.7s2.6-5.6,5.7-5.6s5.7,2.6,5.7,5.7S37.6,58.5,34.4,58.5z M47.1,30.4c-0.8,1.2-1.7,2.3-2.8,3.3
	c-3.1,3.1-6.8,5.4-5.6,10.7l-9.1,0v-0.8c0-5.5,1.9-8.2,5.3-11.6c0.9-0.9,1.8-1.9,2.8-3.1s1.5-2.2,1.5-3c0-1.3-0.4-2.3-1.3-3.2
	s-1.9-1.3-3.2-1.3c-1.3,0-2.3,0.4-3.2,1.3s-1.3,1.9-1.3,3.2h-9c0-3.7,1.3-6.9,4-9.6s5.9-4,9.6-4s6.9,1.3,9.6,4s4,5.9,4,9.6
	C48.3,27.8,47.9,29.2,47.1,30.4z"/>
</svg>
