<?xml version="1.0" encoding="utf-8"?>
<!-- Generator: Adobe Illustrator 21.1.0, SVG Export Plug-In . SVG Version: 6.00 Build 0)  -->
<svg version="1.1" xmlns="http://www.w3.org/2000/svg" xmlns:xlink="http://www.w3.org/1999/xlink" x="0px" y="0px"
	 viewBox="0 0 251.1 508.9" style="enable-background:new 0 0 251.1 508.9;" xml:space="preserve">
<style type="text/css">
	.st0{fill:#B685C1;}
	.st1{fill:#73407F;}
	.st2{fill:#93347D;}
	.st3{fill:#601B53;}
	.st4{fill:#351B06;}
	.st5{fill:#C99877;}
	.st6{fill:#724E36;}
	.st7{fill:#FFFFFF;}
	.st8{fill:#A00753;}
	.st9{fill:#212121;}
</style>
<g id="fin">
	<g id="tail-fin">
		<path class="st0" d="M133.5,357.9c0,0,16,14.1,17,30.2c1,16.1-10.1,36.9-31.6,51.1c-21.4,14.2-38,18.7-45.3,36.4
			S72,506.9,72,506.9s-7.4-5.4-7.4-31.8c0-26.4,3-56.9,22.5-85.6S119.8,357.3,133.5,357.9z"/>
		<path class="st0" d="M121.3,354.6c0,0,14.1-0.4,17.2,9c3.2,9.4-0.8,21.9-20,42.9c-19.1,21-47.1,45.6-69.7,55.8
			c-22.6,10.2-34.1,13.6-39.4,26.6c-5.4,13.1-1,20-1,20s-12.4-5.3-5.1-55s30.1-65.9,59.6-80.3S115.3,354,121.3,354.6z"/>
	</g>
</g>
<g id="fin-bg">
	<path id="tail-fin-bg" class="st1" d="M134.7,359.5c0,0-11.3-6-33.9,1c-16.3,5.1-45.3,17.9-58,27.2s-21.1,18.1-26.9,32.6
		c-5.8,14.6-9.2,28.4-10.3,38.2S4.4,475,4.4,480.8S5,492,5,492s4.2-16.1,18-21.1s27.7-8.3,38.1-15.1S87,437.4,95,429.9
		c8-7.4,17.7-15.1,31.4-32.5c13.7-17.4,13.1-25.6,13.1-25.6s3.4,13.9-13.9,33.3S94,435.6,88.1,440.3C82.2,445,68.7,455,68.7,455
		s-2.2,4.2-1.9,13.6c0.3,9.4,1.7,17.1,2.1,15.6c0.3-1.5,3.1-9.4,6.4-14.9c3.3-5.5,11-12.3,16.9-16s13.3-6.3,24.8-14.7
		s21.8-17.4,26.7-29.3c5-11.9,5.8-20.3,5-25.9s-7.5-16.6-10.1-19.8C136,360.4,134.7,359.5,134.7,359.5l1.6-1.4
		c0,0,6.8,6.7,10.3,13.8c3.5,7.2,4.7,8.8,3.7,22.2s-4.7,15.9-9.7,24.1c-5,8.3-14.6,16.4-21.7,20.9c-7.1,4.5-13.1,9.1-24.9,16.4
		c-11.8,7.3-19.4,17-22,24.4c-2.5,7.4-2.8,16.5-1.4,21.7c1.4,5.2,1.4,5.2,1.4,5.2s-5.2-2.3-6.8-20c-1.6-17.7-0.1-29-0.1-29
		s-10.9,6.7-18.4,9c-7.5,2.3-18,4-22.8,7c-4.8,3.1-12.3,8.2-14.4,15.1c-2.1,6.8-3.4,13.5-2.2,16.7s1.2,3.3,1.2,3.3s-5.5-3-7.2-12.4
		c-1.7-9.4-2-23.8,1.2-45.2C5.6,430,16.6,410,24.2,399.6c7.6-10.5,24.6-20.6,39.3-27.5s27.4-13.2,40-15.7c12.7-2.6,15-1.9,20.8-1.7
		c11.2,0.5,12,3.4,12,3.4L134.7,359.5z"/>
</g>
<g id="tail-body_1_">
	<path id="tail-body" class="st2" d="M106.5,223.4c0,0-13,2.8-24.2,14.9s-15.8,26.9-14.5,38.4s8.8,35.2,21.2,42.5s23.8,9,34,7
		s22-9,22-9s-7,12-7.5,26.8s-1.2,31.2,1.8,32.2s16-20.2,27.5-33s22.2-25.2,42.2-43.4c20-18.1,41.7-42.1,41.6-54.6
		c-0.1-12.5-4.5-33.1-32.9-30.2c-28.4,2.9-59.8,14.8-65.9,15.7c-6.1,0.9-6.1,0.9-6.1,0.9s-0.4,4.9-1.5,5.3c-1.1,0.5-3.9,1.1-5.9,2
		c-2,0.9-7.2,2.9-10.4,5.1c-3.1,2.3-3.7,3.6-4,1.3c0,0-2.2-5-4.8-8.8c-2.6-3.8-4.8-5.2-7.8-7.7C108.9,226.8,107,225.5,106.5,223.4z"
		/>
</g>
<g id="tail-outline_1_">
	<g id="tail-outline">
		<path class="st3" d="M106.3,225.6c0,0-8.4,2.8-13.7,6.7c-5.3,3.9-12.4,11.2-16.2,16.9c-3.8,5.7-7.6,14.4-6.9,24.9
			s6.2,23.6,9.4,30.2c3.2,6.6,7.2,13.2,19.8,17.3c12.7,4.1,23.2,3.2,31.8,0.4c8.6-2.8,16.4-8.1,16.4-8.1s1.7-5.2,5.5-12
			s12.2-27.4,18.6-37.2c6.4-9.9,16.8-23.5,23.5-26.2c6.8-2.8,14.2-2.4,14.2-2.4s-10,1.5-14.6,4.8s-12.8,12.4-24.1,31.5
			s-19.8,39.2-22.9,47.5s-4.5,9.5-6.5,26s-1.2,27.1-0.1,26.1s4-3.1,10.1-11s12.9-17.6,23.2-28.4s18.8-19.6,28.5-29.1
			s23-21.6,32.2-33.1s14-19.4,13.5-28.2s-2.5-17.9-12.9-22.6s-24.4-2.5-36.6,0.8s-33.9,9.3-40.9,10.6s-12.8,2.2-12.8,2.2l0.6-2.9
			c0,0,10-0.9,21.8-4.6s37.6-9.8,44.8-10.9s21.3-1,27.4,3.8c6.1,4.7,12.8,17.9,11.3,28.4c-1.5,10.5-15.5,28.2-27.1,39.9
			s-24.9,21.6-36.9,34.5c-12,12.9-23.5,25.4-29.9,34c-6.4,8.6-15.2,22.2-17.3,22.1s-3-7.5-3.1-18.6s0.2-21.8,2.2-28.2
			s6.2-13.3,6.2-13.3s-14,10.5-29.1,10.5s-30.5-4.9-38.4-19.9s-10.7-25.6-10-39.2c0.7-13.6,10.5-27.9,20.2-35.4
			c9.7-7.5,18.8-9.6,18.8-9.6S105.3,224.1,106.3,225.6z"/>
		<path class="st3" d="M122.5,213.2c0,0-8-0.9-20.5,0c-12.5,0.9-16.8,5.1-16.8,8.4s5.6,6.9,4,9.3c-1.6,2.4,3.7,0.7,11,6.2
			c7.3,5.5,12,6.2,16.8,12.3s7,4.2,10.8,1.9s19.1-11.2,19.9-14.1C153.7,217.1,122.5,213.2,122.5,213.2z"/>
		<path class="st3" d="M97.2,229.4c0,0,6.1,1.4,12.9,7.2s8.8,8.8,8.8,8.8l1.6,1.6l2.5,2.2c0,0,0.6,0.5,3.3-0.4c8-2.9,15-6.8,17.8-9
			s1.6-8.1,1.6-8.1s-6.1,5.8-11.4,8.4s-5.6,5.8-9.9,0.5c-4.3-5.2-16.4-18.4-17.8-17.9c-1.4,0.5-9.7,4.1-11,5.4
			C94.2,229.4,95.8,229.5,97.2,229.4z"/>
	</g>
</g>
<g id="body_1_">
	<path class="st4" d="M183.3,103.1c0,0,2.2-3,8.8-5s18-6.8,25.5-14.8s11.4-22,11.7-29.3S223,39.8,223,39.8s1.2-9.2-5-18
		S208,9.1,208,9.1s-7.8-6.3-12.5-6.3s-5.8,1.2-5.8,1.2s-2.8-4.2-9.2-3.5s-6.8,2.2-6.8,2.2s-5.3-4.2-14.4-2.3
		c-9.1,1.8-14.6,2.3-15.8,7.1s-2,6.5-2,6.5s-4,2-9.8,4c-7.9,2.8-23.2,20-30.2,34.2s-4.5,22.3,0,26.3s10.8,6.8,8.2,12.9
		s-6.8,5.4-6.8,5.4s5.8,0.2,8-2.3s4-5,4-5s0.5,5.2,4,7s5.5-0.5,8.2,1.8s5.8,3.8,2.2,5.8s-13.5,4.7-21,17.5s-9,30.2-4.8,39.5
		s4.2,9,5.5,14s0.5,7.5,0.5,7.5s3-3.2,2.2-7.5s-0.8-4.3-0.8-4.3s4,2.8,4,10.2s1,10.2-3,15s-6.5,11.2-6.5,11.2s3.2-5.5,8.5-8
		s13.7-7.8,19.1-19.2c5.4-11.5,11.2-23.7,15.8-28c4.6-4.3,17.1-15.8,16.3-26.3s-5-19.7-5-19.7s5.2,0.2,14-1.4
		S183.3,103.1,183.3,103.1"/>
	<path id="body" class="st5" d="M126.6,53c0,0-3,8,1,12s3.3,9.2,3.3,15.2s-0.7,14.5,5.3,18.5s11,8,15,11s9.4,3.4,9.4,3.4
		s2,8.9-4,10.9s-9,2-14,5s-8,9-9,14s0,7-1,10s-5,9-6,21s-1.9,22.2-4.9,29.2c-3,7-10.1,17-14.1,19s-0.1,4.7,1.9,7.7s8.9,9.9,11.8,13
		c2.7,3,2.3,4.4,4.7,3.5c6.2-2.5,9.9-7,13.9-8.1c6.4-1.7,4-4.7,6-9.7s5.4-6.4,9.4-9.4s6.8-5.8,11.8-11.8s7.5-12.5,8.5-13.5
		s2-4.5,2-4.5s3.7,1.4,5.7,5.4s6.8,9.5,12.8,13.5s12.9,12.1,14.9,15.1s4.6,12.6,4.6,15.6s-3,10-2,15c1,5,0.1,14.2,2.1,15.2
		s8.4-11,10.4-19s3.5-10.1,2.5-15.1s0-9-5-14s-9-11-14-19s-7.5-12.6-15-22c-4-5-8-11-8-11s2-4,4-9c1.5-3.7,1.6-5.4,1.6-5.4
		s8.4,9.4,12.4,14.4s8,8,11,13s8.8,10.8,15.8,18.8s9.2,13.2,8.2,16.2s-3,5-4,11s0.1,7.9,0.1,7.9s3.5-3.4,3.5-5.4s2.3-3.5,2.3-3.5
		s0,7.1-2,12.1s-2,15.9-1,15.9s6-12.9,9-17.9s4-18,2-24s-6-10-8-16s-4-7-8-15s-8.5-13.8-13-21c-5-8-10-15-14-22c-4.6-8-8-14-13-14
		c-3.2,0-8,1-8,1s-3.5-7.9-3.5-14.9s2.8-15.2,2.8-15.2s2.6-4.9,4.6-8.9s3.7-9.5,4.5-12.6c1.2-4.3,6.4,1.4,6.9-8.6
		c0.2-5-0.5-8.8-0.5-8.8s-3,5-10,2s-6-6-12-7s-15-4-21-9s-9-8-9-8s-3.6,6-9.6,7.8C131.6,45.1,132.8,44.5,126.6,53z"/>
</g>
<g id="body-outline_1_">
	<g id="body-outline">
		<path class="st6" d="M160.5,113.6c0,0,3,7-1,10s-5,2-5,2s3,0,5,2s4,4,5,7s9,16,9,16s-8-11-10-15s-4-6-8-7s-9.5-1-13.5,3
			s-3.7,8-3.7,12s1.7,7.3,3.2,9c2.3,2.7,7.7,7.5,7.7,7.5s-6.7-4.5-8.7-5.5s-4-4-4-4s-0.5,2.2-1.5,4.2s-2.2,3.3-4.5,9.8
			c-2,5.7-2,8-3,16s-1,10-3,16s-5,13-9,18s-7,8-9,9s-6.3,2-6.3,2s3.3-1,7.3-4s6-5,9-10s5-7,7-15s2-18,3-24s1.5-9.5,3.6-14.3
			c2.1-4.8,3-6,3-11.2s1.4-9,3.8-12.7c2.4-3.7,4.8-6,10.7-8.2s10.9-2.2,12-4.8C160.7,118.6,161.2,117.6,160.5,113.6z"/>
		<path class="st6" d="M149.2,160.1c0,0,9.5,9.7,15,14.5s12.8,11.5,15.7,13.7c2.8,2.2,5,8,9.3,12.3c4.3,4.3,5.8,4.7,11,10
			c5.2,5.3,10,9,12.5,15s4.2,12,3.7,14.5s-1.8,4.3-2,8.5c-0.2,4.2-0.2,6.8,0.5,10.5c0.7,3.7-0.9,11,1.6,9.2c2.5-1.8,6.4-8.8,8.2-16
			c1.8-7.2,4.3-14,3.2-21.4c-1.2-7.3-5.2-9.3-10.2-15.7c-5-6.4-10.8-15.9-15.2-22.4s-6-8.5-10-13.2s-10-14.7-13.5-19.3
			c-3.5-4.7-6.3-10.8-6.3-10.8s10.3,14.1,15.1,20.8s14.1,18.4,17.8,25c3.7,6.5,14,22.2,17.5,24.7c3.4,2.4,6,10.5,6.1,16.3
			c0.1,3.9-0.1,7.6-4.9,20.1c-4.7,12.5-7.9,13.4-8.7,13.4c0,0-1.2,0.2-1.4-5c-0.2-5.2-0.6-10.3-0.8-11.5c-0.3-1.6-0.3-3.2,0.4-6.4
			c0.8-4.1,2.1-8.3,1.4-10.6c-1-3.3-2.7-10.5-5.6-14c-2.9-3.5-9.6-10.8-13.4-13.3c-5.1-3.3-9.3-7-11.9-11.3c-2.6-4.3-3.4-6.1-4.9-7
			c-1.5-1-5.7-3.2-9-6.6c-3.3-3.4-7.2-6.7-11.8-11.7C154.1,167.4,149.2,160.1,149.2,160.1z"/>
		<path class="st6" d="M178.2,189.9c0,0-6,12.1-10.7,17.6c-5.5,6.6-8.5,9.6-12.4,12.3c-3.9,2.7-8.9,6.7-9.5,11.8
			c-0.5,5.1-1,5.2-2.5,5.8c-1.6,0.5-3.2,1-3.2,1s4.1-1.5,4.3-3.3s-0.8-6.5,3.2-10.4s10.2-8.1,15.2-13.5s6.9-10.5,8.5-13.6
			s4-9.8,4-9.8L178.2,189.9z"/>
		<path class="st6" d="M139.9,227.6c0,0-4.4,2.1-6,4.2s1,2.6,1.1,2s-1.8,0.1,0.4-2.5C136.7,229.9,139.9,227.6,139.9,227.6z"/>
		<path class="st6" d="M186.3,168.3c0,0,2.2-3.6,3.6-7.7c1.4-4.1,1.6-8.9,1.4-10.8c-0.2-2-1.1-7.9-1.1-7.9s1.3,5.1,4.2,10.9
			c2,4.1,12.7,17.6,14.8,19.3s4,4.7,6.8,8.7s7,9.4,10.9,13.9s6.2,7,8,9.4s5.8,8.2,5.8,10.1s-1.1,4.4-2.2,6.8c-1.2,2.4-2.1,3.8-2.4,7
			c-0.3,3.2-0.5,7.4-0.1,7s2.4-2.1,2.8-3.4s0.5-2.9,1.4-3.8s1.7-1.9,1.7-1.9s0.6,1.6,0.3,3.4s-0.2,4.8-1.2,7.4s-1.4,3.2-1.8,6.1
			c-0.4,2.8-0.9,12.2-0.4,11.6c0.6-0.6,2.1-4.3,4.4-9.6s4.1-8.2,5-10.4s2.9-10.1,2.1-16.1c-0.7-6.1-2.7-8.5-6.6-15.4
			c-3.9-6.9-4.6-10.3-8.2-16.2s-6.4-11.8-8.9-15.6c-2.4-3.8-9.1-13.9-12.4-18.6c-3.3-4.7-9.2-15.8-11-18.8s-4.3-7.2-7.2-7.8
			s-4.8-0.4-6.6,0.1s-2.5,2.8-2.5,2.8s0.8,3.3,1.3,5.4c0.5,2.1,1.2,3.6,1.2,3.6s-1.5-4.5-3.5-8.8c-2-4.3-3.8-11.4-4-14.3
			c-0.2-2.8-1.4-6.8-4.5-6.3s-7.1,4-10,4.6c-2.9,0.7-7.4,0.3-7.4,0.3s7.6-0.1,11.4-3.5c3.8-3.4,9-7.7,10.8-10.3s3.5-4.9,3.5-4.9
			s-3.3,12.4-3,16.6c0.3,4.2,0.5,6.8,1.3,9.1s1,3.2,1,3.2s8-0.5,12.3,2.1c3,1.8,4.3,3.4,5.8,5.7c1.5,2.3,3,4.9,4,6.7
			c1,1.8,5.2,8.5,6.4,10.4s5.8,9,6.9,10.8c1.1,1.7,6.3,10.3,7.5,12.2c1.2,1.9,4,6.7,4.9,8.5c0.9,1.8,3.7,6.9,4.6,8.3
			c0.9,1.4,3,4.7,3.7,6.6c0.7,1.9,1.7,4.7,2.5,6.1s2.6,4.4,3.5,6c0.9,1.6,3.3,5.6,3.8,10.1c0.6,4.6,0.1,7.6,0,9.1
			c-0.2,1.5-1,6.5-2,9.1c-1,2.6-2.3,4.4-3.2,6.5c-0.9,2-2.5,5.6-3.5,7.9c-1,2.3-2.2,4.1-2.7,5.3c-0.5,1.2-0.9,1.3-1.1,0.1
			c-0.4-2-0.2-3.8-0.2-6.8c0-3,0.8-7.3,1.6-9.4c1-2.4,1.5-5.2,1.7-6.9c0.3-2.3,0.3-4.1,0.3-4.1s-1.4,0.9-1.6,1.4
			c-0.3,0.9-0.4,1.3-0.6,2.4c-0.3,1.1-1.7,2.8-2.4,3.6c-0.7,0.8-1.2,1.6-1.4,1.6s-0.5-2-0.4-3.8c0.1-1.8,0.3-5.2,1-7.7
			c0.7-2.4,1.2-3.7,2.3-5.9c1.2-2.2,1.6-4.2,0.9-6c-0.7-1.8-2.5-5-4.8-7.9c-2.3-2.8-6.5-7.6-8.8-10.4s-8.2-8.7-10-11.5
			c-1.8-2.9-4.4-6.6-6.6-8.6c-2.2-2-6.1-6.7-7.6-8.8c-1.5-2-3.4-3.8-5.2-6c-1.7-2.1-3.7-4.4-3.9-4.4c0,0-0.4,1.2-0.8,2.6
			c-0.7,2.5-1,3.4-1.9,5.4s-2.3,4.4-2.4,4.8c-0.1,0.4-0.3,0.9-0.3,0.9L186.3,168.3z"/>
		<path class="st6" d="M131.9,46c0,0-7,10.1-5.5,14.5s1,3.4,2.6,6c1.6,2.6,2.4,3.9,2.2,6.9s-0.4,7.4-0.1,12.3s0.4,8.8,3.6,11.4
			c3.2,2.6,9.4,6.9,11.9,8.9c2.6,2,5.1,3.9,8.2,5.5c3.1,1.6,4.9,1.5,7.6,1s6.7-1.8,12-7.7s7.2-8.7,9.5-10.8c2.3-2.2,4.9-5.7,6.4-9.2
			c1.5-3.6,3.2-8.4,3-10.7c-0.2-2.2-0.6-5.3,0-7.4c0.6-2.1,2.5-4.9,2.5-4.9s-1.3,2.5-1.2,4.3c0,0.7-0.3,1.9,1.2,1.5
			c1.5-0.4,1.9,0.9,1.7,1.8c-0.2,0.8,0.3,1.7,1.2,1c0.8-0.7,1.3-2.3,1.7-4.4c0.3-2.1,0.3-4.8,0-6.2c-0.3-1.3-0.3-1.3-0.3-1.3
			s-2.7,2.5-4.2,2.6c-1.5,0.1-2,2.5-3.1,2.9c-1.1,0.4-3,0-4.8-2.3c-1.8-2.3-2.3-3.4-6.8-5.6c-4.4-2.2-3.6-3-10.6-4.9
			c-7-1.9-9.2-2.8-14.3-7.2c-5.1-4.3-7.7-8.1-7.7-8.1s-0.4,1.3-3.2,3.9c-2.8,2.6-10.3,4.4-10.3,4.4s7-2.4,9.3-4.4c2.3-2,4-5,4-5
			s5.2,4.9,9.6,8c4.4,3.1,7.4,4.8,11.4,6.6c4,1.8,8.6,1.5,12.2,3.4c3.6,1.9,4.5,4.1,9.4,6.1c4.9,2,7.7-0.4,8.3-0.8
			c0.5-0.4,1.2-1.3,1.2-1.3s1.6,4.8,1,10s-1.4,6-3.7,6.4c-2.3,0.4-3.4,0.4-3.7,2.8c-0.4,2.4-0.9,10.4-3.5,14.2
			c-2.6,3.8-5,8.3-6.6,10.6s-2.7,3.5-10.4,8.9c-7.7,5.3-13.8,4.8-19.8,2c-6.1-2.8-6.6-4.5-9.7-6.8c-3.1-2.3-6.9-5-9.1-6.5
			c-2.2-1.5-4-4.7-4.2-9.7c-0.2-5,0.3-14.5-0.6-17.2s-2.4-5.9-4.5-7.9c-2.2-1.9-0.7-8.4,1.4-11.5C129.1,48.7,131.9,46,131.9,46z"/>
		<path class="st6" d="M148,78.2c0,0-1.9,1.6-1.9,3s1.8,3.3,1.8,3.3s-1.2,0-3-1.9c-2.7-3,3.1-4.9,3.1-6.4s0-1.5,0-1.5
			S149.3,76.8,148,78.2z"/>
	</g>
</g>
<g id="face-features">
	<path id="teeth" class="st7" d="M145.8,95.7c0,0,3.7-1.8,6.8-2.8s4.2-0.7,9.2-0.4c5.1,0.4,9.5-1.1,9.5-1.1s-5.8,8.8-9.7,9.7
		c-3.9,0.8-8.3,1.4-11.7-0.9c-3.4-2.3-5-4-5-4L145.8,95.7z"/>
	<g id="lips">
		<path class="st8" d="M143,95.4c0,0,1.8,0.5,2.7-0.8c0.8-1.3,1.2-3.6,3.2-3.4s3.6,1.1,5.2,0s1.8-2.2,4.4-1.7s5.2,1.9,8.4,1.5
			s8.1-2.2,8.1-2.2s-6.2,6.1-12.6,5c-6-1.1-8.4-0.4-11.6,0.9S147.8,97.8,143,95.4z"/>
		<path class="st8" d="M149,98.6c0,0,3,2.5,8.1,1.6s7-2,8.9-3.6s2.8-3.6,4.2-4.4c1.4-0.8,3.6-2.6,3.6-2.6s-2.8,3.2-4.3,5.9
			s-4.1,5.8-7.1,7.5s-7.6,1.5-10.1,0s-7.2-6.7-7.2-6.7S145.9,96,149,98.6z"/>
	</g>
	<g id="eyebrows">
		<path class="st4" d="M158.1,50.6c0,0-0.1,4.9,1.5,4.7c1.6-0.2,5.3-3.2,8.7-4.7c3.4-1.6,14.1,1.9,14.1,1.9s-7.9-5.1-12.1-5.4
			C166,46.7,159.9,52.1,158.1,50.6z"/>
		<path class="st4" d="M123.8,60.7c0,0,0.9-1,3-1.5s4.6-0.2,5.4-1.3s0.8-1.1,0.8-1.1s2.8,4,1,4.9s-5.7,0.7-6.8,0.9s-3.3,2-3.3,2
			V60.7z"/>
	</g>
	<g id="eyes_1_">
		<g id="eyes">
			<path class="st9" d="M158.1,70.5c1-0.4,4.5-1.5,6.5-2.8c2-1.3,7.3-3.2,8.9-1.9c1.6,1.3,4.7,1.6,6.8,0.3c2.2-1.3,3.9-6.3,3.9-6.3
				s-2.3,3.6-4.7,3.5c-2.3-0.1-2.3-3.5-4.4-3.5c-2,0-8.6,0.4-10.6,1.9C162.6,63.3,158.1,70.5,158.1,70.5z"/>
			<path class="st9" d="M130.3,69.6c0,0,5.5-1,6.8-1s6.5,5.4,6.5,5.4s-6.5-0.7-8.3-0.3c-2.9,0.7-4.4,2-4.4,2l-0.4,1.7
				c-0.8,0-5-5.8-5-5.8s3.1,1.8,3.4,1.1C129.1,71.8,129.7,70.2,130.3,69.6z"/>
		</g>
	</g>
</g>
<g id="bra-outline">
	<g id="bra-outline_1_">
		<path class="st3" d="M192.7,154.1c-1.2,0.1-2,0.3-3.9,0s-2.6,2-3.5,3.7c-0.9,1.7-2.2,1.7-3.7,2.3c-0.2,0.1-0.4,0.2-0.5,0.2
			c1.6,2.2,5.9,8.1,7.2,9.8c1.4,1.8,3.3,4.4,4,5.4c1.4-2.2,2.6-6.4,2.9-9.7C195.6,161.8,193.9,154,192.7,154.1z"/>
		<path class="st3" d="M158.6,171.9c-2.8-3.1-5.8-7.1-7.8-9.8l-0.7-1c-2.2,1.2-5.5,10.8-1.5,16.5c2,2.9-0.3,3.9,1.7,6
			c1.9,2.1,7.7,5.4,14.5,4.4c1.6-0.2,2-2.6,3.7-2.8c0.6-0.1,1.6-0.4,2.7-0.8C167.9,181.1,163.1,176.9,158.6,171.9z"/>
	</g>
</g>
<g id="bra-body">
	<g id="bra">
		<path class="st2" d="M192.1,155.3c-1.2,0.1-1.5,0.6-3.4,0.3s-2,1.7-2.9,3.4c-0.9,1.7-1.7,2.6-3.2,3.2c-0.2,0.1-0.4,0.2-0.5,0.2
			c1.6,2.2,4.3,6,5.6,7.8c1.4,1.8,2.9,3.9,3.6,4.9c1.4-2.2,2.4-5.5,2.7-8.8C194.6,162.2,193.3,155.1,192.1,155.3z"/>
		<path class="st2" d="M158.7,172.4c-2.7-3-5.6-6.8-7.4-9.3c0,0,0,0,0,0c-2.1,1.1-4.2,9.4-0.4,14.8c1.9,2.7-0.6,3.3,1.2,5.3
			c1.8,2,6.3,4.3,12.8,3.4c1.6-0.2,0.8-1.8,2.4-1.9c0.6-0.1,1.5-0.7,2.6-1.1C166.7,180.3,163.1,177.1,158.7,172.4z"/>
	</g>
</g>
</svg>
