<?xml version="1.0" encoding="utf-8"?>
<!-- Generator: Adobe Illustrator 21.1.0, SVG Export Plug-In . SVG Version: 6.00 Build 0)  -->
<svg version="1.1" xmlns="http://www.w3.org/2000/svg" xmlns:xlink="http://www.w3.org/1999/xlink" x="0px" y="0px"
	 viewBox="0 0 605 149" style="enable-background:new 0 0 605 149;" xml:space="preserve">
<style type="text/css">
	.st0{fill:#721C66;}
	.st1{opacity:0.5;fill:#DD9D57;}
	.st2{opacity:0.44;fill:#44103F;}
</style>
<g id="background_1_">
	<path id="background" class="st0" d="M321.3,6.3C282,5.5,219.2-4.9,172,2.1S68.1,34.5,33.8,43.6S-10.6,55,12.3,62.3
		s11.4,20,31.3,25.6c19.9,5.6,12.3,25.4,40.2,30.1s56.9,5.6,83.6,16.4s80.3,13.9,150,15.1S472,136.9,495,127.5s-1.3-30.5,36.5-42.2
		c37.7-11.7,101.3-29.9,59.8-49.1S470.6,10.5,321.3,6.3"/>
</g>
<g id="foreground_1_">
	<path id="foreground" class="st1" d="M177.2,9.2c0,0-36.3,7.7-67.2,18.1S33.3,50.5,41.9,52.1c8.6,1.6,29.6,14.4,22.8,20.1
		S83,82.6,84.8,90.7s9.7,10.9,32,0.9s53.9-19.6,53.9-19.6S142,85.6,130.9,93.3s-1.1,7.3,27.3,17.4s49.2,16.1,87.1,15.8
		c37.9-0.3,73.8,0.5,118.1,3.5c44.3,3,92.6-7.6,105.1-13.9c12.5-6.3,25.1-8.6,23.5-22.7c-1.5-14-26.1-18.7-26.1-18.7
		s23.2-6.7,35.2-2.4c12.1,4.3,18.1,1.8,41-3.5s61.3-21,48.1-26c-13.2-5-73.8-19.9-113.9-21.9s-99.8,0.7-169.6-8.1S211,12,177.2,9.2z
		"/>
</g>
<g id="shadows_1_">
	<path id="shadows" class="st2" d="M109.9,27.4c0,0,51.3,2.6,78.7,13.6s50.1,28.8,78.9,36.1c28.8,7.3,60.8-11.3,67-13.7
		c6.2-2.3,9.8-10.3,9.8-10.3S372.2,56,391.1,43C410,30,405,15.7,383,14S222.9,2.1,177.2,9.2S109.9,27.4,109.9,27.4"/>
</g>
</svg>
