<?xml version="1.0" encoding="utf-8"?>
<!-- Generator: Adobe Illustrator 21.1.0, SVG Export Plug-In . SVG Version: 6.00 Build 0)  -->
<svg version="1.1" xmlns="http://www.w3.org/2000/svg" xmlns:xlink="http://www.w3.org/1999/xlink" x="0px" y="0px"
	 viewBox="0 0 67 94" style="enable-background:new 0 0 67 94;" xml:space="preserve">
<style type="text/css">
	.st0{fill:#FFCE55;}
	.st1{fill:#E59E20;}
	.st2{fill:#FCE0A2;}
</style>
<g id="hair">
	<path id="hair_4_" class="st0" d="M32.9,7.9c0,0-1.2-6.3-8-7.5S9.5,4.1,9.5,4.1s3.2-0.3,5.1,0.5s1.9,0.8,1.9,0.8S8,5.3,5,7.9
		s-3.2,5.3-3.2,5.3s1.6-1.4,4.4-1.6s2.8-0.2,2.8-0.2s-4.8,2-7.1,6.6S0,25.3,0,25.3s0.9-1.6,3.6-3s3.9-1.6,3.9-1.6S4.9,22.6,4,25.3
		S4.5,33,4.5,33s0.1-2.6,1.8-4.2s2.5-1.6,2.5-1.6S6.9,29.2,8.2,33s4.9,6.1,4.9,6.1S12,37.5,12,35.6s1.1-2.6,1.1-2.6s0.2,4.2,2.2,6.1
		s3.5,1.8,3.5,1.8s-1.2-1.8-0.7-3.6S32.9,7.9,32.9,7.9z"/>
</g>
<g id="body">
	<path id="body_5_" class="st1" d="M47.5,29.9c0,0,5.5-0.5,11-4.2s6.5-12.7,4.2-12.7c-2.3,0-12.3,4-15.2,1.8s-2.8-6.8-10-7
		C30.3,7.8,23,7.8,16.8,15.4S13,33.6,18.2,37.3c5.2,3.7,11.7,5.6,13.7,7.7c2,2.1,4,8.8,6.6,11c2.7,2.2,5.6,3.8,3.4,10.2
		c-2.1,6.4-6.3,10.8-3.4,19.4S55.8,96.8,61.8,91s5.8-15.2,0.8-19.8c-5-4.6-8.5-3.9-8.5-3.9s-0.5-4,2.5-6.2s3.7-9.5,2-14.2
		c-1.7-4.7-5.5-8.8-8.2-10C47.8,35.8,43.3,34.3,47.5,29.9z"/>
</g>
<g id="outline">
	<path id="body-outline_7_" class="st2" d="M62.7,71.2c-5-4.6-8.5-3.9-8.5-3.9s-0.5-4,2.5-6.2c3-2.2,3.7-9.5,2-14.2
		c-1.7-4.7-5.5-8.8-8.2-10s-7.2-2.7-3-7c0,0,5.5-0.5,11-4.2c5.5-3.7,6.5-12.7,4.2-12.7c-2.3,0-12.3,4-15.2,1.8s-2.8-6.8-10-7
		S23,7.8,16.8,15.4c-6.2,7.7-3.8,18.2,1.3,21.8c5.2,3.7,11.7,5.6,13.7,7.7s4,8.8,6.6,11c2.7,2.2,5.6,3.8,3.4,10.2
		c-2.1,6.4-6.3,10.8-3.4,19.4c2.8,8.6,17.3,11.1,23.3,5.4S67.7,75.8,62.7,71.2z M60.1,90.4c-1.8,1.4-5.5,2.8-12.5,1.3
		s-9.1-6.1-8.8-12.8c0.3-6.7,3.3-8.4,4.6-13.7s-0.6-7.2-3.2-9.2c-2.7-2.1-5.6-7.9-6.8-10.5c-1.2-2.7-4.3-4.3-8.9-6.3
		s-7.3-2.7-9.5-9.2s0.2-10,2.4-13.6c2.2-3.6,6.2-5.2,6.2-5.2c3.9-2,6.3-1.9,12.2-2.2s7.4,2.3,8.7,4s1.3,3.4,5.8,3.8
		c4.5,0.4,10.4-2.6,11.6-2.6c1.2,0,1,1.8,0.2,3.8c-0.8,2.1-1.7,4.8-6.1,7.4s-9.7,3-9.7,3s-2.4,3.8-1.9,6s5.4,3.5,5.4,3.5
		s-1.1,0.1-3.2,2.2c-2.1,2.2-2.8,5.8-2.8,5.8s1.1-2.4,2.8-4.1c1.7-1.7,3.8-3.2,5.4-2.1c1.7,1.2,2.9,3.2,2.9,3.2s-0.6,0-3.4,1.8
		s-5.2,5.8-5.2,5.8s2.8-3.2,5.1-4.6c2.3-1.4,4.9-1.3,4.9-1.3l1.5,3.9c0,0-1.8,0-3.9,1.4c-2.2,1.4-4,4.5-4,4.5s2.5-2.3,4.2-3.5
		c1.8-1.2,4.1-0.9,4.1-0.9s0,5-0.8,7.1s-2.4,3-3.9,4.5s-1,5.7-1,5.7s-4.3,0.6-6.9,3.7c-2.6,3.1-4,9.4,1.5,11.5
		c5.5,2.1,10.1-0.5,11-4.3c0.9-3.8-3.8-4.9-3.8-4.9s3.3,2.1,2.8,5c-0.5,2.9-5.8,5.2-9.1,3.1s-4.6-7.2-0.8-10.2
		c3.8-3,10.7-1.6,13.9,1.1c3.2,2.7,3.6,7.6,3.4,10.4S61.9,89,60.1,90.4z"/>
</g>
<g id="eye">
	<path id="eye_1_" d="M38.3,20.8c0,0-0.4,2.6-1.7,3.8s-4,3.2-5.9,3.7S28,31.6,28,31.6s5.9,0.2,8.9-1.9s4.8-8.2,4.8-8.2L38.3,20.8z"
		/>
</g>
<g id="fin">
	<path id="fin_3_" class="st0" d="M36.2,46c0,0-2.5,3.2-9.5,5.2s-7,2-7,2s3.8,3.2,5.8,4.2s5,1.9,5,1.9s0.2,1.8,5.8-2.4
		s5.7-5.7,5.7-5.7L36.2,46z"/>
</g>
</svg>
